<svg width="491" height="567" xmlns="http://www.w3.org/2000/svg" xmlns:xlink="http://www.w3.org/1999/xlink" overflow="hidden"><defs><clipPath id="clip0"><rect x="0" y="0" width="491" height="567"/></clipPath></defs><g clip-path="url(#clip0)"><rect x="0" y="0" width="491" height="567.385" fill="#FFFFFF"/><path d="M210.998 254.172 210.998 422.493 205.002 422.493 205.002 254.172ZM216.994 419.493 208 437.493 199.006 419.493Z"/><rect x="95" y="278.189" width="212" height="123.083" fill="#FFFFFF"/><g><g><g><path d="M91.2879 37.022C91.2261 36.1252 90.5736 35.3799 89.6929 35.2L79.1189 33.041C78.4613 32.9048 77.7794 33.1098 77.3059 33.586L75.1699 35.721 60.97 21.521C60.7985 24.4306 59.228 27.0768 56.756 28.621L69.5129 41.378 67.4499 43.442C66.9813 43.9107 66.7753 44.5811 66.8999 45.232L68.9449 55.916C69.1161 56.8092 69.8685 57.4743 70.7759 57.535L81.3819 58.242C81.4269 58.242 81.4719 58.247 81.5169 58.247 82.6215 58.2831 83.5462 57.417 83.5824 56.3125 83.6186 55.2079 82.7525 54.2832 81.6479 54.247L72.5819 53.647 71.0269 45.522 79.3739 37.175 87.3999 38.81 88.0059 47.894C88.0794 48.9969 89.033 49.8315 90.1359 49.758 91.2388 49.6845 92.0733 48.7309 91.9999 47.628Z" transform="matrix(1 0 0 1.00068 160 437.297)"/><path d="M42.941 50.941C42.9418 47.7265 42.0226 44.5789 40.292 41.87L33.236 50.3C29.5849 54.6766 23.0771 55.2647 18.7005 51.6135 14.324 47.9624 13.7359 41.4546 17.387 37.0781 17.7843 36.6018 18.2238 36.1623 18.7 35.765L18.96 35.547C12.9313 38.2982 9.06239 44.3142 9.05999 50.941L9.05999 69.9999 42.941 69.9999Z" transform="matrix(1 0 0 1.00068 160 437.297)"/><path d="M43 21C43 20.3913 43.0616 19.7842 43.184 19.188L20.623 38.065C17.5242 40.6614 17.117 45.2782 19.7134 48.377 22.3097 51.4758 26.9266 51.883 30.0254 49.2866 30.3547 49.0107 30.6591 48.7063 30.935 48.377L47.388 28.714C44.6711 27.0927 43.0051 24.1639 43 21ZM27.923 43.906C27.1421 44.6872 25.8757 44.6874 25.0946 43.9064 24.3134 43.1255 24.3132 41.8592 25.0941 41.078 25.8751 40.2968 27.1414 40.2966 27.9226 41.0776 27.9227 41.0777 27.9229 41.0779 27.923 41.078 28.7038 41.859 28.7038 43.125 27.923 43.906Z" transform="matrix(1 0 0 1.00068 160 437.297)"/><path d="M43 73.9999 8.99999 73.9999C6.79085 73.9999 5 75.7908 5 77.9999L5 81.9999 47 81.9999 47 77.9999C47 75.7908 45.2091 73.9999 43 73.9999Z" transform="matrix(1 0 0 1.00068 160 437.297)"/><path d="M52 15C48.6863 15 46 17.6863 46 21 46 24.3137 48.6863 27 52 27 55.3137 27 58 24.3137 58 21 58 17.6863 55.3137 15 52 15ZM52 22.5C51.1716 22.5 50.5 21.8284 50.5 21 50.5 20.1716 51.1716 19.5 52 19.5 52.8284 19.5 53.5 20.1716 53.5 21 53.5 21.8284 52.8284 22.5 52 22.5Z" transform="matrix(1 0 0 1.00068 160 437.297)"/></g></g></g><g><g><g><path d="M62.1999 54.6C66.3999 56.1 70.3999 57.7999 73.6999 60.5 75.0999 61.5999 75.8999 63.1999 75.8999 64.9999L77.6999 80.4999C77.7999 81.1999 77.4999 81.8999 76.8999 82.2999L76.8999 82.2999C75.1999 83.3999 73.3999 84.2999 71.4999 84.8999L71.4999 88.0999 74.1999 88.0999C75.8999 87.3999 77.5999 86.5999 79.0999 85.5999L79.0999 85.5999C80.8999 84.3999 81.8999 82.1999 81.5999 79.9999L79.9999 64.8999C79.8999 61.9999 78.5999 59.2999 76.2999 57.5 72.5999 54.4 68.1999 52.5 63.5999 50.9L58.7 48.9C58.2999 48.7 58.0999 48.4 58.0999 48L58.0999 45.6C61.8999 42.6 64.0999 38 64.0999 33.1L64.0999 29.5C64.6999 29.9 65.3999 30 66.0999 30.1L64.3999 25.1C64.1999 24.4 63.9999 23.7 63.8999 23 63.0999 17.3 59.7 13.3 55 10.8 54.6 10.6 54.1 10.6 53.7 10.9L52.8 11.6 51.8 10.2C51.5 9.79999 51.1 9.39999 50.6 9.29999 49.7 9.09999 48.8 8.99999 47.9 8.99999 40 8.99999 33.4 15.2 32 23.3L32 24 32 24 32 25.7C32 27.9 31.6 30 30.7 32L29 36C29 36 30.2 35.7 32.2 35.1 32.7 39.2 34.8 42.9 38 45.4L38 47.9C38 48.3 37.8 48.7 37.4 48.8L32.5 50.8C27.9 52.4 23.5 54.3 19.8 57.4 17.5 59.2 16.1 61.8999 16 64.7999L14.3 79.9999C14 82.1999 15 84.3999 16.8 85.5999 18.3 86.5999 20 87.3999 21.7 88.0999L24.5 88.0999 24.5 84.9999C22.6 84.2999 20.8 83.4999 19.1 82.3999 18.5 81.9999 18.2 81.2999 18.3 80.5999L20 65.1999 20 64.9999C20 63.1999 20.9 61.5999 22.3 60.5 25.6 57.7999 29.6 56.1 33.8 54.6L35.4 54.1C38.3 55.9 42.9 57 48 57 53.1 57 57.7 55.9 60.7 54.1L62.1999 54.6ZM36 33.9C42.8 31.6 52.6 27.6 57 22 57.9 23.4 58.9 24.7 60 26L60 33C60 39.6 54.6 45 48 45 41.7 45 36.5 40.2 36 33.9ZM40 51.9C41.2 51 42 49.5 42 47.9L42 47.8C45.8 49.4 50.2 49.4 54 47.8L54 47.9C54 49.4 54.7 50.9 55.9 51.9 53.3 52.7 50.6 53.1 47.9 53 45.3 53 42.6 52.6 40 51.9Z" transform="matrix(1 0 0 1.00068 160 19.0129)"/><path d="M69.5999 65.2999C69.5999 63.8999 68.4999 62.7999 67.0999 62.7999L67.0999 62.7999 29 62.7999C27.6 62.7999 26.5 63.8999 26.5 65.2999L26.5 65.2999 26.5 90.1999 18.9 90.1999 18.9 91.4999C18.9 92.8999 20 93.9999 21.4 93.9999L74.6999 93.9999C76.0999 93.9999 77.1999 92.8999 77.1999 91.4999L77.1999 90.1999 69.5999 90.1999 69.5999 65.2999ZM42.8 81.7999 41.4 83.1999 35.8 77.5999 41.4 71.9999 42.8 73.3999 38.6 77.5999 42.8 81.7999ZM46.6 83.8999 44.8 83.0999 49.5 71.7999 51.3 72.5999 46.6 83.8999ZM54.6 83.2999 53.2 81.8999 57.4 77.6999 53.2 73.4999 54.6 72.0999 60.2 77.6999 54.6 83.2999Z" transform="matrix(1 0 0 1.00068 160 19.0129)"/></g></g></g><g><g><g><path d="M34.59 64.41 23.17 53 34.59 41.59 37.41 44.41 28.83 53 37.41 61.59 34.59 64.41Z" transform="matrix(1 0 0 1.00068 21 158.107)"/><path d="M61.41 64.41 58.59 61.59 67.17 53 58.59 44.41 61.41 41.59 72.83 53 61.41 64.41Z" transform="matrix(1 0 0 1.00068 21 158.107)"/><path d="M35.4435 51.5452 60.436 51.5452 60.436 55.5455 35.4435 55.5455Z" transform="matrix(0.382807 -0.924347 0.923721 0.383066 1.12002 235.49)"/><path d="M8 17 8 79 88 79 88 17ZM77 23C78.1046 23 79 23.8954 79 25 79 26.1046 78.1046 27 77 27 75.8954 27 75 26.1046 75 25 75 23.8954 75.8954 23 77 23ZM70 23C71.1046 23 72 23.8954 72 25 72 26.1046 71.1046 27 70 27 68.8954 27 68 26.1046 68 25 68 23.8954 68.8954 23 70 23ZM63 23C64.1046 23 65 23.8954 65 25 65 26.1046 64.1046 27 63 27 61.8954 27 61 26.1046 61 25 61 23.8954 61.8954 23 63 23ZM82 73 14 73 14 33 82 33Z" transform="matrix(1 0 0 1.00068 21 158.107)"/></g></g></g><g><g><g><path d="M23 14 72.9999 14 72.9999 81.9999 23 81.9999 23 14ZM17 87.9999 78.9999 87.9999 78.9999 7.99999 17 7.99999 17 87.9999Z" transform="matrix(1 0 0 1.00068 160 158.107)"/><path d="M49 65.9999 66.9999 65.9999 66.9999 69.9999 49 69.9999Z" transform="matrix(1 0 0 1.00068 160 158.107)"/><path d="M29 22 66.9999 22 66.9999 26 29 26Z" transform="matrix(1 0 0 1.00068 160 158.107)"/><path d="M29 30 66.9999 30 66.9999 34 29 34Z" transform="matrix(1 0 0 1.00068 160 158.107)"/><path d="M29 38 66.9999 38 66.9999 42 29 42Z" transform="matrix(1 0 0 1.00068 160 158.107)"/><path d="M29 46 48 46 48 50 29 50Z" transform="matrix(1 0 0 1.00068 160 158.107)"/><path d="M32.1 74.9999 36 71.0999 39.9 74.9999 43 71.8999 39.1 67.9999 43 64.0999 39.9 61 36 64.8999 32.1 61 29 64.0999 32.9 67.9999 29 71.8999Z" transform="matrix(1 0 0 1.00068 160 158.107)"/></g></g></g><path d="M210.998 115.078 210.998 143.426 205.002 143.426 205.002 115.078ZM216.994 140.426 208 158.426 199.006 140.426Z"/><text font-family="HGSoeiKakupoptai,HGSoeiKakupoptai_MSFontService,sans-serif" font-weight="400" font-size="24" transform="matrix(1 0 0 1.00068 33.0163 114)">Encrypt</text><path d="M1.89507-2.32303 53.3744 39.6725 49.5842 44.3185-1.89507 2.32303ZM54.8415 33.1313 63.0945 51.4709 43.4711 47.0695Z" transform="matrix(-1 0 0 1.00068 168.094 107.073)"/><path d="M117 203.14 148.935 203.14 148.935 209.14 117 209.14ZM145.937 197.14 163.925 206.14 145.937 215.14Z"/><g><g><g><path d="M138.755 121.557C138.755 121.557 138.755 121.557 138.755 121.557 138.755 121.557 138.755 121.557 138.755 121.557 136.87 104.832 121.793 92.5815 105.067 94.2306 93.995 95.4085 84.5719 102.24 80.096 112.37L84.3364 114.255C89.9902 101.062 105.303 95.1729 118.495 100.827 126.74 104.36 132.394 111.899 133.807 120.851 133.807 120.851 133.807 120.851 133.807 120.851 133.807 120.851 133.807 120.851 133.807 120.851L128.625 115.668 125.327 118.966 136.399 130.038 147.471 118.966 144.173 115.668 138.755 121.557Z" transform="matrix(1.00374 0 0 1 95 225.153)"/><path d="M108.365 150.769C95.4085 150.769 84.5719 141.346 82.6873 128.625 82.6873 128.625 82.6873 128.625 82.6873 128.625 82.6873 128.625 82.6873 128.625 82.6873 128.625L87.87 133.807 91.1681 130.509 80.096 119.202 69.0239 130.274 72.322 133.572 77.7402 128.154C77.7402 128.154 77.7402 128.154 77.7402 128.154 77.7402 128.154 77.7402 128.154 77.7402 128.154 79.6248 144.88 94.4661 157.129 111.428 155.48 122.5 154.303 131.923 147.471 136.399 137.341L132.158 135.456C127.918 144.644 118.731 150.769 108.365 150.769Z" transform="matrix(1.00374 0 0 1 95 225.153)"/><path d="M189.875 105.774C187.99 94.2306 181.629 83.8652 172.206 77.0335 162.312 70.2018 150.298 67.6104 138.519 69.9662 129.096 55.8316 113.548 47.1153 96.5863 47.1153 92.8171 47.1153 88.8123 47.5864 85.0431 48.5287 65.0191 53.7114 49.9422 70.4374 46.8797 90.9325 33.4519 91.4037 21.2019 97.7642 13.1923 108.365 3.76922 121.557 2.12019 138.755 8.71633 153.596 15.548 168.202 29.6826 177.86 45.7018 178.803L62.8989 178.803 160.663 179.038 185.634 179.038C205.894 178.567 221.913 161.605 221.442 141.346 220.971 123.206 207.543 108.365 189.875 105.774 189.875 105.774 189.875 105.774 189.875 105.774ZM216.73 144.173C215.552 160.663 202.125 173.855 185.634 174.327L160.663 174.327 62.8989 174.091 45.9374 174.091C31.8028 173.149 19.0817 164.668 13.1923 151.711 7.06729 138.519 8.48075 122.971 16.9615 111.192 24.2644 101.769 35.1009 96.1152 47.1153 95.644L51.1201 95.4085 51.5912 91.6392C54.4182 73.0287 68.0816 57.9518 86.221 53.0047 89.519 52.298 93.0527 51.8268 96.5863 51.8268 111.899 51.8268 126.269 59.6008 134.514 72.5575L136.163 75.1489 139.226 74.4422C149.591 72.322 160.428 74.6777 169.144 80.8027 177.625 86.9277 183.278 96.1152 184.928 106.481L185.399 109.779 188.697 110.25C205.658 112.841 217.437 127.447 216.73 144.173L216.73 144.173Z" transform="matrix(1.00374 0 0 1 95 225.153)"/></g></g></g><g><g><g><path d="M11.7475 7.15067 37.2856 7.15067 37.2856 41.8825 11.7475 41.8825 11.7475 7.15067ZM8.68296 44.9471 40.3502 44.9471 40.3502 4.0861 8.68296 4.0861 8.68296 44.9471Z" transform="matrix(1.01972 0 0 1 127 430.292)"/><path d="M25.0274 33.7103 34.2211 33.7103 34.2211 35.7534 25.0274 35.7534Z" transform="matrix(1.01972 0 0 1 127 430.292)"/><path d="M14.8121 11.2368 34.2211 11.2368 34.2211 13.2798 14.8121 13.2798Z" transform="matrix(1.01972 0 0 1 127 430.292)"/><path d="M14.8121 15.3229 34.2211 15.3229 34.2211 17.3659 14.8121 17.3659Z" transform="matrix(1.01972 0 0 1 127 430.292)"/><path d="M14.8121 19.409 34.2211 19.409 34.2211 21.452 14.8121 21.452Z" transform="matrix(1.01972 0 0 1 127 430.292)"/><path d="M14.8121 23.4951 24.5166 23.4951 24.5166 25.5381 14.8121 25.5381Z" transform="matrix(1.01972 0 0 1 127 430.292)"/><path d="M16.3955 38.3072 18.3874 36.3152 20.3794 38.3072 21.9628 36.7238 19.9708 34.7318 21.9628 32.7399 20.3794 31.1565 18.3874 33.1485 16.3955 31.1565 14.8121 32.7399 16.8041 34.7318 14.8121 36.7238Z" transform="matrix(1.01972 0 0 1 127 430.292)"/></g></g></g><text font-family="HGSoeiKakupoptai,HGSoeiKakupoptai_MSFontService,sans-serif" font-weight="400" font-size="24" transform="matrix(1 0 0 1.00068 35.9993 497)">Process</text><text font-family="HGSoeiKakupoptai,HGSoeiKakupoptai_MSFontService,sans-serif" font-weight="400" font-size="24" transform="matrix(1 0 0 1.00068 261.36 188)">Encode</text><text font-family="HGSoeiKakupoptai,HGSoeiKakupoptai_MSFontService,sans-serif" font-weight="400" font-size="24" transform="matrix(1 0 0 1.00068 279.348 217)">and</text><text font-family="HGSoeiKakupoptai,HGSoeiKakupoptai_MSFontService,sans-serif" font-weight="400" font-size="24" transform="matrix(1 0 0 1.00068 273.352 245)">Sign</text><path d="M283.021 81.1667 290.62 81.2471 301.383 81.4779 311.701 81.7928 321.522 82.1872 330.789 82.6567 339.449 83.1967 347.446 83.8027 354.728 84.4708 361.242 85.1972 366.942 85.9795 371.787 86.8183 375.761 87.7237 378.915 88.7465 381.567 90.1954 382.998 92.5581 382.998 473.826 381.567 476.189 378.915 477.638 375.761 478.661 371.787 479.566 366.942 480.405 361.242 481.187 354.728 481.913 347.446 482.581 339.449 483.188 330.789 483.728 321.522 484.197 311.701 484.591 301.383 484.906 290.623 485.137 279.477 485.279 268.013 485.327 267.987 479.327 279.439 479.279 279.413 479.279 290.534 479.138 290.508 479.138 301.241 478.908 301.214 478.909 311.504 478.595 311.475 478.596 321.266 478.202 321.234 478.204 330.469 477.736 330.434 477.738 339.056 477.2 339.016 477.203 346.97 476.6 346.922 476.604 354.151 475.941 354.093 475.947 360.54 475.228 360.465 475.238 366.075 474.467 365.971 474.484 370.687 473.667 370.533 473.698 374.299 472.84 374.04 472.911 376.8 472.016 376.288 472.237 377.985 471.31 376.858 472.388 377.436 471.433 377.002 472.988 377.002 93.3961 377.436 94.9509 376.858 93.996 377.985 95.0744 376.288 94.1471 376.8 94.3679 374.04 93.4728 374.299 93.5441 370.533 92.6861 370.687 92.717 365.971 91.9007 366.075 91.9167 360.465 91.1467 360.54 91.1561 354.093 90.4371 354.151 90.4431 346.922 89.7798 346.97 89.7838 339.016 89.181 339.056 89.1838 330.434 88.6462 330.469 88.6481 321.234 88.1804 321.266 88.1818 311.475 87.7885 311.504 87.7895 301.214 87.4755 301.241 87.4762 290.508 87.2461 290.54 87.2466 282.958 87.1663ZM285.922 93.1882 268 84.057 286.053 75.1886Z"/><text font-family="HGSoeiKakupoptai,HGSoeiKakupoptai_MSFontService,sans-serif" font-weight="400" font-size="24" transform="matrix(1 0 0 1.00068 394.468 289)">Report</text><g><g><g><path d="M26.875 21.4584 29.5834 24.1667 32.2917 21.4584 35 24.1667 38.3334 20 35 15.8333 18.125 15.8333C16.625 13.0833 13.75 11.25 10.4167 11.25 5.58334 11.25 1.66667 15.1667 1.66667 20 1.66667 24.8334 5.58334 28.75 10.4167 28.75 13.75 28.75 16.625 26.9167 18.125 24.1667L20.8334 24.1667 22.5 22.5 24.1667 24.1667 26.875 21.4584ZM6.66667 22.5C5.29167 22.5 4.16667 21.375 4.16667 20 4.16667 18.625 5.29167 17.5 6.66667 17.5 8.04167 17.5 9.16667 18.625 9.16667 20 9.16667 21.375 8.04167 22.5 6.66667 22.5Z" fill="#CC9900" transform="matrix(1 0 0 1.0257 129 61.0414)"/></g></g></g><g><g><g><path d="M23.4375 32.4375 23.4375 34.9219 21.5625 34.9219 21.5625 32.4375C20.4844 32.0625 19.6875 31.0312 19.6875 29.7656 19.6875 28.2188 20.9531 26.9531 22.5 26.9531 24.0469 26.9531 25.3125 28.2188 25.3125 29.7656 25.3125 30.9844 24.5156 32.0156 23.4375 32.4375ZM15.4688 15.2344C15.4688 11.3438 18.6094 8.20312 22.5 8.20312 26.3906 8.20312 29.5312 11.3438 29.5312 15.2344L29.5312 20.4375 22.5 19.9219 15.4688 20.4375 15.4688 15.2344ZM32.3438 20.625 32.3438 15.2344C32.3438 9.79688 27.9375 5.39062 22.5 5.39062 17.0625 5.39062 12.6562 9.79688 12.6562 15.2344L12.6562 20.625 9.375 20.8594 9.375 38.6719 22.5 39.6094 35.625 38.6719 35.625 20.8594 32.3438 20.625Z" fill="#CC9900" transform="matrix(1 0 0 1.00068 98 215.146)"/></g></g></g><g><g><g><path d="M16.2141 30.1922 10.8609 24.8438 16.2141 19.4953 17.5359 20.8172 13.5141 24.8438 17.5359 28.8703 16.2141 30.1922Z" transform="matrix(1 0 0 1.00068 242 429.291)"/><path d="M28.7859 30.1922 27.4641 28.8703 31.4859 24.8438 27.4641 20.8172 28.7859 19.4953 34.1391 24.8438 28.7859 30.1922Z" transform="matrix(1 0 0 1.00068 242 429.291)"/><path d="M16.6142 24.1618 28.3294 24.1618 28.3294 26.037 16.6142 26.037Z" transform="matrix(0.382807 -0.924348 0.923721 0.383067 232.681 465.564)"/><path d="M3.75 7.96875 3.75 37.0312 41.25 37.0312 41.25 7.96875ZM36.0938 10.7812C36.6115 10.7812 37.0312 11.201 37.0312 11.7188 37.0312 12.2365 36.6115 12.6562 36.0938 12.6562 35.576 12.6562 35.1562 12.2365 35.1562 11.7188 35.1562 11.201 35.576 10.7812 36.0938 10.7812ZM32.8125 10.7812C33.3303 10.7812 33.75 11.201 33.75 11.7188 33.75 12.2365 33.3303 12.6562 32.8125 12.6562 32.2947 12.6562 31.875 12.2365 31.875 11.7188 31.875 11.201 32.2947 10.7812 32.8125 10.7812ZM29.5312 10.7812C30.049 10.7812 30.4688 11.201 30.4688 11.7188 30.4688 12.2365 30.049 12.6562 29.5312 12.6562 29.0135 12.6562 28.5938 12.2365 28.5938 11.7188 28.5938 11.201 29.0135 10.7812 29.5312 10.7812ZM38.4375 34.2188 6.5625 34.2188 6.5625 15.4688 38.4375 15.4688Z" transform="matrix(1 0 0 1.00068 242 429.291)"/></g></g></g><path d="M299.013 437.183C296.038 442.993 288.919 445.29 283.113 442.313 277.307 439.336 275.012 432.212 277.987 426.402 280.962 420.592 288.081 418.296 293.887 421.273 296.779 422.756 298.933 425.366 299.841 428.488L301.446 428.488 298.625 431.793 294.696 428.488 296.264 428.488C294.44 424.197 289.485 422.198 285.197 424.023 280.909 425.849 278.912 430.807 280.736 435.098 282.56 439.389 287.515 441.388 291.803 439.562 293.62 438.789 295.109 437.402 296.009 435.643Z" stroke="#1C440D" stroke-width="1.99864" stroke-miterlimit="8" fill="#4EA72E" fill-rule="evenodd"/></g></svg>