<svg xmlns="http://www.w3.org/2000/svg" version="1.1" height="624" width="1032" viewBox="0 0 1032 624" class="diagram" text-anchor="middle" font-family="monospace" font-size="13px" stroke-linecap="round">
<rect class="backdrop" x="0" y="0" width="1032" height="624" rx="3px" ry="3px" fill="white" opacity="0.9"/>
<path d="M 8,16 L 8,608" fill="none" stroke="black"/>
<path d="M 296,16 L 296,608" fill="none" stroke="black"/>
<path d="M 336,112 L 336,576" fill="none" stroke="black"/>
<path d="M 704,112 L 704,576" fill="none" stroke="black"/>
<path d="M 744,48 L 744,528" fill="none" stroke="black"/>
<path d="M 1024,48 L 1024,528" fill="none" stroke="black"/>
<path d="M 8,16 L 24,16" fill="none" stroke="black"/>
<path d="M 152,16 L 296,16" fill="none" stroke="black"/>
<path d="M 744,48 L 760,48" fill="none" stroke="black"/>
<path d="M 1008,48 L 1024,48" fill="none" stroke="black"/>
<path d="M 296,62 L 736,62" fill="none" stroke="black"/><path d="M 296,66 L 736,66" fill="none" stroke="black"/>
<path d="M 304,78 L 744,78" fill="none" stroke="black"/><path d="M 304,82 L 744,82" fill="none" stroke="black"/>
<path d="M 336,112 L 352,112" fill="none" stroke="black"/>
<path d="M 616,112 L 704,112" fill="none" stroke="black"/>
<path d="M 296,126 L 328,126" fill="none" stroke="black"/><path d="M 296,130 L 328,130" fill="none" stroke="black"/>
<path d="M 304,142 L 336,142" fill="none" stroke="black"/><path d="M 304,146 L 336,146" fill="none" stroke="black"/>
<path d="M 296,158 L 328,158" fill="none" stroke="black"/><path d="M 296,162 L 328,162" fill="none" stroke="black"/>
<path d="M 704,174 L 736,174" fill="none" stroke="black"/><path d="M 704,178 L 736,178" fill="none" stroke="black"/>
<path d="M 712,190 L 744,190" fill="none" stroke="black"/><path d="M 712,194 L 744,194" fill="none" stroke="black"/>
<path d="M 304,222 L 336,222" fill="none" stroke="black"/><path d="M 304,226 L 336,226" fill="none" stroke="black"/>
<path d="M 296,254 L 328,254" fill="none" stroke="black"/><path d="M 296,258 L 328,258" fill="none" stroke="black"/>
<path d="M 704,270 L 736,270" fill="none" stroke="black"/><path d="M 704,274 L 736,274" fill="none" stroke="black"/>
<path d="M 712,286 L 744,286" fill="none" stroke="black"/><path d="M 712,290 L 744,290" fill="none" stroke="black"/>
<path d="M 304,302 L 336,302" fill="none" stroke="black"/><path d="M 304,306 L 336,306" fill="none" stroke="black"/>
<path d="M 296,366 L 328,366" fill="none" stroke="black"/><path d="M 296,370 L 328,370" fill="none" stroke="black"/>
<path d="M 704,366 L 736,366" fill="none" stroke="black"/><path d="M 704,370 L 736,370" fill="none" stroke="black"/>
<path d="M 712,382 L 744,382" fill="none" stroke="black"/><path d="M 712,386 L 744,386" fill="none" stroke="black"/>
<path d="M 704,398 L 736,398" fill="none" stroke="black"/><path d="M 704,402 L 736,402" fill="none" stroke="black"/>
<path d="M 712,414 L 744,414" fill="none" stroke="black"/><path d="M 712,418 L 744,418" fill="none" stroke="black"/>
<path d="M 704,478 L 736,478" fill="none" stroke="black"/><path d="M 704,482 L 736,482" fill="none" stroke="black"/>
<path d="M 304,494 L 336,494" fill="none" stroke="black"/><path d="M 304,498 L 336,498" fill="none" stroke="black"/>
<path d="M 712,494 L 744,494" fill="none" stroke="black"/><path d="M 712,498 L 744,498" fill="none" stroke="black"/>
<path d="M 296,510 L 328,510" fill="none" stroke="black"/><path d="M 296,514 L 328,514" fill="none" stroke="black"/>
<path d="M 744,528 L 1024,528" fill="none" stroke="black"/>
<path d="M 304,542 L 336,542" fill="none" stroke="black"/><path d="M 304,546 L 336,546" fill="none" stroke="black"/>
<path d="M 336,576 L 704,576" fill="none" stroke="black"/>
<path d="M 8,608 L 296,608" fill="none" stroke="black"/>
<polygon class="arrowhead" points="744,480 732,474.4 732,485.6" fill="black" transform="rotate(0,736,480)"/>
<polygon class="arrowhead" points="744,400 732,394.4 732,405.6" fill="black" transform="rotate(0,736,400)"/>
<polygon class="arrowhead" points="744,368 732,362.4 732,373.6" fill="black" transform="rotate(0,736,368)"/>
<polygon class="arrowhead" points="744,272 732,266.4 732,277.6" fill="black" transform="rotate(0,736,272)"/>
<polygon class="arrowhead" points="744,176 732,170.4 732,181.6" fill="black" transform="rotate(0,736,176)"/>
<polygon class="arrowhead" points="744,64 732,58.4 732,69.6" fill="black" transform="rotate(0,736,64)"/>
<polygon class="arrowhead" points="720,496 708,490.4 708,501.6" fill="black" transform="rotate(180,712,496)"/>
<polygon class="arrowhead" points="720,416 708,410.4 708,421.6" fill="black" transform="rotate(180,712,416)"/>
<polygon class="arrowhead" points="720,384 708,378.4 708,389.6" fill="black" transform="rotate(180,712,384)"/>
<polygon class="arrowhead" points="720,288 708,282.4 708,293.6" fill="black" transform="rotate(180,712,288)"/>
<polygon class="arrowhead" points="720,192 708,186.4 708,197.6" fill="black" transform="rotate(180,712,192)"/>
<polygon class="arrowhead" points="336,512 324,506.4 324,517.6" fill="black" transform="rotate(0,328,512)"/>
<polygon class="arrowhead" points="336,368 324,362.4 324,373.6" fill="black" transform="rotate(0,328,368)"/>
<polygon class="arrowhead" points="336,256 324,250.4 324,261.6" fill="black" transform="rotate(0,328,256)"/>
<polygon class="arrowhead" points="336,160 324,154.4 324,165.6" fill="black" transform="rotate(0,328,160)"/>
<polygon class="arrowhead" points="336,128 324,122.4 324,133.6" fill="black" transform="rotate(0,328,128)"/>
<polygon class="arrowhead" points="312,544 300,538.4 300,549.6" fill="black" transform="rotate(180,304,544)"/>
<polygon class="arrowhead" points="312,496 300,490.4 300,501.6" fill="black" transform="rotate(180,304,496)"/>
<polygon class="arrowhead" points="312,304 300,298.4 300,309.6" fill="black" transform="rotate(180,304,304)"/>
<polygon class="arrowhead" points="312,224 300,218.4 300,229.6" fill="black" transform="rotate(180,304,224)"/>
<polygon class="arrowhead" points="312,144 300,138.4 300,149.6" fill="black" transform="rotate(180,304,144)"/>
<polygon class="arrowhead" points="312,80 300,74.4 300,85.6" fill="black" transform="rotate(180,304,80)"/>
<g class="text">
<text x="32" y="20">P</text>
<text x="40" y="20">r</text>
<text x="48" y="20">o</text>
<text x="56" y="20">c</text>
<text x="64" y="20">e</text>
<text x="72" y="20">s</text>
<text x="80" y="20">s</text>
<text x="96" y="20">E</text>
<text x="104" y="20">x</text>
<text x="112" y="20">a</text>
<text x="120" y="20">m</text>
<text x="128" y="20">p</text>
<text x="136" y="20">l</text>
<text x="144" y="20">e</text>
<text x="24" y="36">m</text>
<text x="32" y="36">a</text>
<text x="40" y="36">i</text>
<text x="48" y="36">n</text>
<text x="56" y="36">(</text>
<text x="64" y="36">)</text>
<text x="80" y="36">{</text>
<text x="40" y="52">r</text>
<text x="48" y="52">e</text>
<text x="56" y="52">p</text>
<text x="64" y="52">o</text>
<text x="72" y="52">r</text>
<text x="80" y="52">t</text>
<text x="88" y="52">_</text>
<text x="96" y="52">k</text>
<text x="104" y="52">e</text>
<text x="112" y="52">y</text>
<text x="128" y="52">=</text>
<text x="144" y="52">i</text>
<text x="152" y="52">n</text>
<text x="160" y="52">i</text>
<text x="168" y="52">t</text>
<text x="176" y="52">_</text>
<text x="184" y="52">s</text>
<text x="192" y="52">i</text>
<text x="200" y="52">g</text>
<text x="208" y="52">n</text>
<text x="216" y="52">i</text>
<text x="224" y="52">n</text>
<text x="232" y="52">g</text>
<text x="240" y="52">_</text>
<text x="248" y="52">k</text>
<text x="256" y="52">e</text>
<text x="264" y="52">y</text>
<text x="272" y="52">(</text>
<text x="280" y="52">)</text>
<text x="768" y="52">l</text>
<text x="776" y="52">i</text>
<text x="784" y="52">b</text>
<text x="792" y="52">c</text>
<text x="800" y="52">s</text>
<text x="808" y="52">u</text>
<text x="816" y="52">i</text>
<text x="824" y="52">t</text>
<text x="840" y="52">S</text>
<text x="848" y="52">U</text>
<text x="856" y="52">I</text>
<text x="864" y="52">T</text>
<text x="880" y="52">R</text>
<text x="888" y="52">e</text>
<text x="896" y="52">p</text>
<text x="904" y="52">o</text>
<text x="912" y="52">r</text>
<text x="920" y="52">t</text>
<text x="928" y="52">i</text>
<text x="936" y="52">n</text>
<text x="944" y="52">g</text>
<text x="960" y="52">E</text>
<text x="968" y="52">n</text>
<text x="976" y="52">g</text>
<text x="984" y="52">i</text>
<text x="992" y="52">n</text>
<text x="1000" y="52">e</text>
<text x="40" y="68">s</text>
<text x="48" y="68">u</text>
<text x="56" y="68">i</text>
<text x="64" y="68">t</text>
<text x="72" y="68">_</text>
<text x="80" y="68">r</text>
<text x="88" y="68">e</text>
<text x="96" y="68">p</text>
<text x="104" y="68">o</text>
<text x="112" y="68">r</text>
<text x="120" y="68">t</text>
<text x="128" y="68">_</text>
<text x="136" y="68">e</text>
<text x="144" y="68">n</text>
<text x="152" y="68">g</text>
<text x="160" y="68">i</text>
<text x="168" y="68">n</text>
<text x="176" y="68">e</text>
<text x="184" y="68">_</text>
<text x="192" y="68">i</text>
<text x="200" y="68">n</text>
<text x="208" y="68">i</text>
<text x="216" y="68">t</text>
<text x="224" y="68">(</text>
<text x="232" y="68">r</text>
<text x="240" y="68">k</text>
<text x="248" y="68">e</text>
<text x="256" y="68">y</text>
<text x="264" y="68">)</text>
<text x="760" y="68">s</text>
<text x="768" y="68">u</text>
<text x="776" y="68">i</text>
<text x="784" y="68">t</text>
<text x="792" y="68">_</text>
<text x="800" y="68">r</text>
<text x="808" y="68">e</text>
<text x="816" y="68">p</text>
<text x="824" y="68">o</text>
<text x="832" y="68">r</text>
<text x="840" y="68">t</text>
<text x="848" y="68">_</text>
<text x="856" y="68">e</text>
<text x="864" y="68">n</text>
<text x="872" y="68">g</text>
<text x="880" y="68">i</text>
<text x="888" y="68">n</text>
<text x="896" y="68">e</text>
<text x="904" y="68">_</text>
<text x="912" y="68">i</text>
<text x="920" y="68">n</text>
<text x="928" y="68">i</text>
<text x="936" y="68">t</text>
<text x="944" y="68">(</text>
<text x="952" y="68">)</text>
<text x="968" y="68">{</text>
<text x="976" y="68">}</text>
<text x="40" y="100">r</text>
<text x="48" y="100">e</text>
<text x="56" y="100">c</text>
<text x="64" y="100">i</text>
<text x="72" y="100">p</text>
<text x="80" y="100">i</text>
<text x="88" y="100">e</text>
<text x="96" y="100">n</text>
<text x="104" y="100">t</text>
<text x="112" y="100">_</text>
<text x="120" y="100">k</text>
<text x="128" y="100">e</text>
<text x="136" y="100">y</text>
<text x="144" y="100">s</text>
<text x="160" y="100">=</text>
<text x="176" y="100">i</text>
<text x="184" y="100">n</text>
<text x="192" y="100">i</text>
<text x="200" y="100">t</text>
<text x="208" y="100">_</text>
<text x="216" y="100">k</text>
<text x="224" y="100">e</text>
<text x="232" y="100">y</text>
<text x="240" y="100">s</text>
<text x="248" y="100">(</text>
<text x="256" y="100">)</text>
<text x="40" y="116">m</text>
<text x="56" y="116">=</text>
<text x="72" y="116">g</text>
<text x="80" y="116">e</text>
<text x="88" y="116">t</text>
<text x="96" y="116">_</text>
<text x="104" y="116">m</text>
<text x="112" y="116">a</text>
<text x="120" y="116">n</text>
<text x="128" y="116">i</text>
<text x="136" y="116">f</text>
<text x="144" y="116">e</text>
<text x="152" y="116">s</text>
<text x="160" y="116">t</text>
<text x="168" y="116">(</text>
<text x="176" y="116">)</text>
<text x="360" y="116">l</text>
<text x="368" y="116">i</text>
<text x="376" y="116">b</text>
<text x="384" y="116">c</text>
<text x="392" y="116">s</text>
<text x="400" y="116">u</text>
<text x="408" y="116">i</text>
<text x="416" y="116">t</text>
<text x="432" y="116">S</text>
<text x="440" y="116">U</text>
<text x="448" y="116">I</text>
<text x="456" y="116">T</text>
<text x="472" y="116">M</text>
<text x="480" y="116">a</text>
<text x="488" y="116">n</text>
<text x="496" y="116">i</text>
<text x="504" y="116">f</text>
<text x="512" y="116">e</text>
<text x="520" y="116">s</text>
<text x="528" y="116">t</text>
<text x="544" y="116">P</text>
<text x="552" y="116">r</text>
<text x="560" y="116">o</text>
<text x="568" y="116">c</text>
<text x="576" y="116">e</text>
<text x="584" y="116">s</text>
<text x="592" y="116">s</text>
<text x="600" y="116">o</text>
<text x="608" y="116">r</text>
<text x="40" y="132">s</text>
<text x="48" y="132">u</text>
<text x="56" y="132">i</text>
<text x="64" y="132">t</text>
<text x="72" y="132">_</text>
<text x="80" y="132">p</text>
<text x="88" y="132">r</text>
<text x="96" y="132">o</text>
<text x="104" y="132">c</text>
<text x="112" y="132">e</text>
<text x="120" y="132">s</text>
<text x="128" y="132">s</text>
<text x="136" y="132">o</text>
<text x="144" y="132">r</text>
<text x="152" y="132">_</text>
<text x="160" y="132">i</text>
<text x="168" y="132">n</text>
<text x="176" y="132">i</text>
<text x="184" y="132">t</text>
<text x="192" y="132">(</text>
<text x="200" y="132">)</text>
<text x="352" y="132">s</text>
<text x="360" y="132">u</text>
<text x="368" y="132">i</text>
<text x="376" y="132">t</text>
<text x="384" y="132">_</text>
<text x="392" y="132">p</text>
<text x="400" y="132">r</text>
<text x="408" y="132">o</text>
<text x="416" y="132">c</text>
<text x="424" y="132">e</text>
<text x="432" y="132">s</text>
<text x="440" y="132">s</text>
<text x="448" y="132">o</text>
<text x="456" y="132">r</text>
<text x="464" y="132">_</text>
<text x="472" y="132">i</text>
<text x="480" y="132">n</text>
<text x="488" y="132">i</text>
<text x="496" y="132">t</text>
<text x="504" y="132">(</text>
<text x="512" y="132">)</text>
<text x="528" y="132">{</text>
<text x="536" y="132">}</text>
<text x="40" y="164">s</text>
<text x="48" y="164">u</text>
<text x="56" y="164">i</text>
<text x="64" y="164">t</text>
<text x="72" y="164">_</text>
<text x="80" y="164">p</text>
<text x="88" y="164">r</text>
<text x="96" y="164">o</text>
<text x="104" y="164">c</text>
<text x="112" y="164">e</text>
<text x="120" y="164">s</text>
<text x="128" y="164">s</text>
<text x="136" y="164">_</text>
<text x="144" y="164">e</text>
<text x="152" y="164">n</text>
<text x="160" y="164">v</text>
<text x="168" y="164">e</text>
<text x="176" y="164">l</text>
<text x="184" y="164">o</text>
<text x="192" y="164">p</text>
<text x="200" y="164">e</text>
<text x="208" y="164">(</text>
<text x="216" y="164">m</text>
<text x="224" y="164">,</text>
<text x="240" y="164">k</text>
<text x="248" y="164">e</text>
<text x="256" y="164">y</text>
<text x="264" y="164">s</text>
<text x="272" y="164">)</text>
<text x="352" y="164">s</text>
<text x="360" y="164">u</text>
<text x="368" y="164">i</text>
<text x="376" y="164">t</text>
<text x="384" y="164">_</text>
<text x="392" y="164">p</text>
<text x="400" y="164">r</text>
<text x="408" y="164">o</text>
<text x="416" y="164">c</text>
<text x="424" y="164">e</text>
<text x="432" y="164">s</text>
<text x="440" y="164">s</text>
<text x="448" y="164">_</text>
<text x="456" y="164">e</text>
<text x="464" y="164">n</text>
<text x="472" y="164">v</text>
<text x="480" y="164">e</text>
<text x="488" y="164">l</text>
<text x="496" y="164">o</text>
<text x="504" y="164">p</text>
<text x="512" y="164">e</text>
<text x="520" y="164">(</text>
<text x="528" y="164">)</text>
<text x="544" y="164">{</text>
<text x="24" y="180">}</text>
<text x="368" y="180">c</text>
<text x="376" y="180">h</text>
<text x="384" y="180">e</text>
<text x="392" y="180">c</text>
<text x="400" y="180">k</text>
<text x="408" y="180">_</text>
<text x="416" y="180">d</text>
<text x="424" y="180">i</text>
<text x="432" y="180">g</text>
<text x="440" y="180">e</text>
<text x="448" y="180">s</text>
<text x="456" y="180">t</text>
<text x="464" y="180">s</text>
<text x="472" y="180">(</text>
<text x="480" y="180">k</text>
<text x="488" y="180">e</text>
<text x="496" y="180">y</text>
<text x="504" y="180">s</text>
<text x="512" y="180">,</text>
<text x="528" y="180">m</text>
<text x="536" y="180">)</text>
<text x="760" y="180">s</text>
<text x="768" y="180">u</text>
<text x="776" y="180">i</text>
<text x="784" y="180">t</text>
<text x="792" y="180">_</text>
<text x="800" y="180">r</text>
<text x="808" y="180">e</text>
<text x="816" y="180">p</text>
<text x="824" y="180">o</text>
<text x="832" y="180">r</text>
<text x="840" y="180">t</text>
<text x="848" y="180">_</text>
<text x="856" y="180">m</text>
<text x="864" y="180">a</text>
<text x="872" y="180">n</text>
<text x="880" y="180">i</text>
<text x="888" y="180">f</text>
<text x="896" y="180">e</text>
<text x="904" y="180">s</text>
<text x="912" y="180">t</text>
<text x="920" y="180">_</text>
<text x="928" y="180">d</text>
<text x="936" y="180">i</text>
<text x="944" y="180">g</text>
<text x="952" y="180">e</text>
<text x="960" y="180">s</text>
<text x="968" y="180">t</text>
<text x="976" y="180">(</text>
<text x="984" y="180">)</text>
<text x="1000" y="180">{</text>
<text x="1008" y="180">}</text>
<text x="368" y="196">i</text>
<text x="376" y="196">n</text>
<text x="384" y="196">s</text>
<text x="392" y="196">t</text>
<text x="400" y="196">a</text>
<text x="408" y="196">l</text>
<text x="416" y="196">l</text>
<text x="424" y="196">(</text>
<text x="432" y="196">m</text>
<text x="440" y="196">)</text>
<text x="456" y="196">{</text>
<text x="384" y="212">p</text>
<text x="400" y="212">=</text>
<text x="416" y="212">e</text>
<text x="424" y="212">x</text>
<text x="432" y="212">t</text>
<text x="440" y="212">r</text>
<text x="448" y="212">a</text>
<text x="456" y="212">c</text>
<text x="464" y="212">t</text>
<text x="472" y="212">_</text>
<text x="480" y="212">p</text>
<text x="488" y="212">a</text>
<text x="496" y="212">r</text>
<text x="504" y="212">a</text>
<text x="512" y="212">m</text>
<text x="520" y="212">s</text>
<text x="528" y="212">(</text>
<text x="536" y="212">m</text>
<text x="544" y="212">.</text>
<text x="552" y="212">s</text>
<text x="560" y="212">h</text>
<text x="568" y="212">a</text>
<text x="576" y="212">r</text>
<text x="584" y="212">e</text>
<text x="592" y="212">d</text>
<text x="600" y="212">,</text>
<text x="616" y="212">m</text>
<text x="624" y="212">.</text>
<text x="632" y="212">i</text>
<text x="640" y="212">n</text>
<text x="648" y="212">s</text>
<text x="656" y="212">t</text>
<text x="664" y="212">a</text>
<text x="672" y="212">l</text>
<text x="680" y="212">l</text>
<text x="688" y="212">)</text>
<text x="24" y="228">s</text>
<text x="32" y="228">u</text>
<text x="40" y="228">i</text>
<text x="48" y="228">t</text>
<text x="56" y="228">_</text>
<text x="64" y="228">f</text>
<text x="72" y="228">e</text>
<text x="80" y="228">t</text>
<text x="88" y="228">c</text>
<text x="96" y="228">h</text>
<text x="104" y="228">_</text>
<text x="112" y="228">c</text>
<text x="120" y="228">a</text>
<text x="128" y="228">l</text>
<text x="136" y="228">l</text>
<text x="144" y="228">b</text>
<text x="152" y="228">a</text>
<text x="160" y="228">c</text>
<text x="168" y="228">k</text>
<text x="176" y="228">(</text>
<text x="184" y="228">)</text>
<text x="200" y="228">{</text>
<text x="384" y="228">s</text>
<text x="392" y="228">u</text>
<text x="400" y="228">i</text>
<text x="408" y="228">t</text>
<text x="416" y="228">_</text>
<text x="424" y="228">f</text>
<text x="432" y="228">e</text>
<text x="440" y="228">t</text>
<text x="448" y="228">c</text>
<text x="456" y="228">h</text>
<text x="464" y="228">_</text>
<text x="472" y="228">c</text>
<text x="480" y="228">a</text>
<text x="488" y="228">l</text>
<text x="496" y="228">l</text>
<text x="504" y="228">b</text>
<text x="512" y="228">a</text>
<text x="520" y="228">c</text>
<text x="528" y="228">k</text>
<text x="536" y="228">(</text>
<text x="544" y="228">p</text>
<text x="552" y="228">.</text>
<text x="560" y="228">d</text>
<text x="568" y="228">s</text>
<text x="576" y="228">t</text>
<text x="584" y="228">,</text>
<text x="600" y="228">p</text>
<text x="608" y="228">.</text>
<text x="616" y="228">u</text>
<text x="624" y="228">r</text>
<text x="632" y="228">i</text>
<text x="640" y="228">)</text>
<text x="40" y="244">h</text>
<text x="48" y="244">t</text>
<text x="56" y="244">t</text>
<text x="64" y="244">p</text>
<text x="72" y="244">_</text>
<text x="80" y="244">g</text>
<text x="88" y="244">e</text>
<text x="96" y="244">t</text>
<text x="104" y="244">(</text>
<text x="112" y="244">u</text>
<text x="120" y="244">r</text>
<text x="128" y="244">i</text>
<text x="136" y="244">,</text>
<text x="152" y="244">p</text>
<text x="160" y="244">t</text>
<text x="168" y="244">r</text>
<text x="176" y="244">)</text>
<text x="40" y="260">r</text>
<text x="48" y="260">e</text>
<text x="56" y="260">t</text>
<text x="64" y="260">u</text>
<text x="72" y="260">r</text>
<text x="80" y="260">n</text>
<text x="96" y="260">S</text>
<text x="104" y="260">U</text>
<text x="112" y="260">I</text>
<text x="120" y="260">T</text>
<text x="128" y="260">_</text>
<text x="136" y="260">S</text>
<text x="144" y="260">U</text>
<text x="152" y="260">C</text>
<text x="160" y="260">C</text>
<text x="168" y="260">E</text>
<text x="176" y="260">S</text>
<text x="184" y="260">S</text>
<text x="384" y="260">i</text>
<text x="392" y="260">f</text>
<text x="408" y="260">(</text>
<text x="416" y="260">p</text>
<text x="424" y="260">.</text>
<text x="432" y="260">r</text>
<text x="440" y="260">e</text>
<text x="448" y="260">p</text>
<text x="456" y="260">o</text>
<text x="464" y="260">r</text>
<text x="472" y="260">t</text>
<text x="488" y="260">=</text>
<text x="496" y="260">=</text>
<text x="512" y="260">R</text>
<text x="520" y="260">E</text>
<text x="528" y="260">P</text>
<text x="536" y="260">O</text>
<text x="544" y="260">R</text>
<text x="552" y="260">T</text>
<text x="560" y="260">_</text>
<text x="568" y="260">O</text>
<text x="576" y="260">N</text>
<text x="584" y="260">_</text>
<text x="592" y="260">S</text>
<text x="600" y="260">U</text>
<text x="608" y="260">C</text>
<text x="616" y="260">C</text>
<text x="624" y="260">E</text>
<text x="632" y="260">S</text>
<text x="640" y="260">S</text>
<text x="648" y="260">)</text>
<text x="664" y="260">{</text>
<text x="24" y="276">}</text>
<text x="400" y="276">s</text>
<text x="408" y="276">u</text>
<text x="416" y="276">i</text>
<text x="424" y="276">t</text>
<text x="432" y="276">_</text>
<text x="440" y="276">e</text>
<text x="448" y="276">x</text>
<text x="456" y="276">t</text>
<text x="464" y="276">e</text>
<text x="472" y="276">n</text>
<text x="480" y="276">d</text>
<text x="488" y="276">_</text>
<text x="496" y="276">p</text>
<text x="504" y="276">a</text>
<text x="512" y="276">r</text>
<text x="520" y="276">a</text>
<text x="528" y="276">m</text>
<text x="536" y="276">e</text>
<text x="544" y="276">t</text>
<text x="552" y="276">e</text>
<text x="560" y="276">r</text>
<text x="568" y="276">(</text>
<text x="576" y="276">e</text>
<text x="584" y="276">r</text>
<text x="592" y="276">r</text>
<text x="600" y="276">,</text>
<text x="616" y="276">a</text>
<text x="624" y="276">t</text>
<text x="632" y="276">)</text>
<text x="760" y="276">s</text>
<text x="768" y="276">u</text>
<text x="776" y="276">i</text>
<text x="784" y="276">t</text>
<text x="792" y="276">_</text>
<text x="800" y="276">e</text>
<text x="808" y="276">x</text>
<text x="816" y="276">t</text>
<text x="824" y="276">e</text>
<text x="832" y="276">n</text>
<text x="840" y="276">d</text>
<text x="848" y="276">_</text>
<text x="856" y="276">p</text>
<text x="864" y="276">a</text>
<text x="872" y="276">r</text>
<text x="880" y="276">a</text>
<text x="888" y="276">m</text>
<text x="896" y="276">e</text>
<text x="904" y="276">t</text>
<text x="912" y="276">e</text>
<text x="920" y="276">r</text>
<text x="928" y="276">(</text>
<text x="936" y="276">)</text>
<text x="952" y="276">{</text>
<text x="960" y="276">}</text>
<text x="384" y="292">}</text>
<text x="24" y="308">s</text>
<text x="32" y="308">u</text>
<text x="40" y="308">i</text>
<text x="48" y="308">t</text>
<text x="56" y="308">_</text>
<text x="64" y="308">c</text>
<text x="72" y="308">o</text>
<text x="80" y="308">n</text>
<text x="88" y="308">d</text>
<text x="96" y="308">i</text>
<text x="104" y="308">t</text>
<text x="112" y="308">i</text>
<text x="120" y="308">o</text>
<text x="128" y="308">n</text>
<text x="136" y="308">_</text>
<text x="144" y="308">c</text>
<text x="152" y="308">a</text>
<text x="160" y="308">l</text>
<text x="168" y="308">l</text>
<text x="176" y="308">b</text>
<text x="184" y="308">a</text>
<text x="192" y="308">c</text>
<text x="200" y="308">k</text>
<text x="208" y="308">(</text>
<text x="216" y="308">)</text>
<text x="232" y="308">{</text>
<text x="384" y="308">s</text>
<text x="392" y="308">u</text>
<text x="400" y="308">i</text>
<text x="408" y="308">t</text>
<text x="416" y="308">_</text>
<text x="424" y="308">c</text>
<text x="432" y="308">o</text>
<text x="440" y="308">n</text>
<text x="448" y="308">d</text>
<text x="456" y="308">i</text>
<text x="464" y="308">t</text>
<text x="472" y="308">i</text>
<text x="480" y="308">o</text>
<text x="488" y="308">n</text>
<text x="496" y="308">_</text>
<text x="504" y="308">c</text>
<text x="512" y="308">a</text>
<text x="520" y="308">l</text>
<text x="528" y="308">l</text>
<text x="536" y="308">b</text>
<text x="544" y="308">a</text>
<text x="552" y="308">c</text>
<text x="560" y="308">k</text>
<text x="568" y="308">(</text>
<text x="576" y="308">p</text>
<text x="584" y="308">.</text>
<text x="592" y="308">c</text>
<text x="600" y="308">l</text>
<text x="608" y="308">a</text>
<text x="616" y="308">s</text>
<text x="624" y="308">s</text>
<text x="632" y="308">_</text>
<text x="640" y="308">i</text>
<text x="648" y="308">d</text>
<text x="656" y="308">)</text>
<text x="40" y="324">c</text>
<text x="48" y="324">l</text>
<text x="56" y="324">a</text>
<text x="64" y="324">s</text>
<text x="72" y="324">s</text>
<text x="80" y="324">_</text>
<text x="88" y="324">i</text>
<text x="96" y="324">d</text>
<text x="112" y="324">=</text>
<text x="128" y="324">g</text>
<text x="136" y="324">e</text>
<text x="144" y="324">t</text>
<text x="152" y="324">_</text>
<text x="160" y="324">c</text>
<text x="168" y="324">l</text>
<text x="176" y="324">a</text>
<text x="184" y="324">s</text>
<text x="192" y="324">s</text>
<text x="200" y="324">_</text>
<text x="208" y="324">i</text>
<text x="216" y="324">d</text>
<text x="224" y="324">(</text>
<text x="232" y="324">)</text>
<text x="40" y="340">c</text>
<text x="48" y="340">o</text>
<text x="56" y="340">n</text>
<text x="64" y="340">s</text>
<text x="72" y="340">u</text>
<text x="80" y="340">m</text>
<text x="88" y="340">e</text>
<text x="96" y="340">d</text>
<text x="104" y="340">(</text>
<text x="112" y="340">c</text>
<text x="120" y="340">l</text>
<text x="128" y="340">a</text>
<text x="136" y="340">s</text>
<text x="144" y="340">s</text>
<text x="152" y="340">_</text>
<text x="160" y="340">i</text>
<text x="168" y="340">d</text>
<text x="176" y="340">)</text>
<text x="40" y="356">i</text>
<text x="48" y="356">f</text>
<text x="64" y="356">(</text>
<text x="72" y="356">c</text>
<text x="80" y="356">l</text>
<text x="88" y="356">a</text>
<text x="96" y="356">s</text>
<text x="104" y="356">s</text>
<text x="112" y="356">_</text>
<text x="120" y="356">i</text>
<text x="128" y="356">d</text>
<text x="144" y="356">!</text>
<text x="152" y="356">=</text>
<text x="168" y="356">p</text>
<text x="176" y="356">.</text>
<text x="184" y="356">c</text>
<text x="192" y="356">l</text>
<text x="200" y="356">a</text>
<text x="208" y="356">s</text>
<text x="216" y="356">s</text>
<text x="224" y="356">_</text>
<text x="232" y="356">i</text>
<text x="240" y="356">d</text>
<text x="248" y="356">)</text>
<text x="264" y="356">{</text>
<text x="56" y="372">r</text>
<text x="64" y="372">e</text>
<text x="72" y="372">t</text>
<text x="80" y="372">u</text>
<text x="88" y="372">r</text>
<text x="96" y="372">n</text>
<text x="112" y="372">S</text>
<text x="120" y="372">U</text>
<text x="128" y="372">I</text>
<text x="136" y="372">T</text>
<text x="144" y="372">_</text>
<text x="152" y="372">E</text>
<text x="160" y="372">R</text>
<text x="168" y="372">R</text>
<text x="176" y="372">_</text>
<text x="184" y="372">C</text>
<text x="192" y="372">O</text>
<text x="200" y="372">N</text>
<text x="208" y="372">D</text>
<text x="216" y="372">I</text>
<text x="224" y="372">T</text>
<text x="232" y="372">I</text>
<text x="240" y="372">O</text>
<text x="248" y="372">N</text>
<text x="384" y="372">i</text>
<text x="392" y="372">f</text>
<text x="408" y="372">(</text>
<text x="416" y="372">e</text>
<text x="424" y="372">r</text>
<text x="432" y="372">r</text>
<text x="440" y="372">)</text>
<text x="456" y="372">{</text>
<text x="464" y="372">s</text>
<text x="472" y="372">u</text>
<text x="480" y="372">i</text>
<text x="488" y="372">t</text>
<text x="496" y="372">_</text>
<text x="504" y="372">e</text>
<text x="512" y="372">x</text>
<text x="520" y="372">t</text>
<text x="528" y="372">e</text>
<text x="536" y="372">n</text>
<text x="544" y="372">d</text>
<text x="552" y="372">_</text>
<text x="560" y="372">r</text>
<text x="568" y="372">e</text>
<text x="576" y="372">c</text>
<text x="584" y="372">o</text>
<text x="592" y="372">r</text>
<text x="600" y="372">d</text>
<text x="608" y="372">(</text>
<text x="616" y="372">)</text>
<text x="624" y="372">}</text>
<text x="760" y="372">s</text>
<text x="768" y="372">u</text>
<text x="776" y="372">i</text>
<text x="784" y="372">t</text>
<text x="792" y="372">_</text>
<text x="800" y="372">e</text>
<text x="808" y="372">x</text>
<text x="816" y="372">t</text>
<text x="824" y="372">e</text>
<text x="832" y="372">n</text>
<text x="840" y="372">d</text>
<text x="848" y="372">_</text>
<text x="856" y="372">r</text>
<text x="864" y="372">e</text>
<text x="872" y="372">c</text>
<text x="880" y="372">o</text>
<text x="888" y="372">r</text>
<text x="896" y="372">d</text>
<text x="904" y="372">(</text>
<text x="912" y="372">)</text>
<text x="928" y="372">{</text>
<text x="936" y="372">}</text>
<text x="40" y="388">}</text>
<text x="40" y="404">r</text>
<text x="48" y="404">e</text>
<text x="56" y="404">t</text>
<text x="64" y="404">u</text>
<text x="72" y="404">r</text>
<text x="80" y="404">n</text>
<text x="96" y="404">S</text>
<text x="104" y="404">U</text>
<text x="112" y="404">I</text>
<text x="120" y="404">T</text>
<text x="128" y="404">_</text>
<text x="136" y="404">S</text>
<text x="144" y="404">U</text>
<text x="152" y="404">C</text>
<text x="160" y="404">C</text>
<text x="168" y="404">E</text>
<text x="176" y="404">S</text>
<text x="184" y="404">S</text>
<text x="384" y="404">e</text>
<text x="392" y="404">l</text>
<text x="400" y="404">s</text>
<text x="408" y="404">e</text>
<text x="424" y="404">{</text>
<text x="432" y="404">s</text>
<text x="440" y="404">u</text>
<text x="448" y="404">i</text>
<text x="456" y="404">t</text>
<text x="464" y="404">_</text>
<text x="472" y="404">e</text>
<text x="480" y="404">x</text>
<text x="488" y="404">t</text>
<text x="496" y="404">e</text>
<text x="504" y="404">n</text>
<text x="512" y="404">d</text>
<text x="520" y="404">_</text>
<text x="528" y="404">p</text>
<text x="536" y="404">a</text>
<text x="544" y="404">r</text>
<text x="552" y="404">a</text>
<text x="560" y="404">m</text>
<text x="568" y="404">e</text>
<text x="576" y="404">t</text>
<text x="584" y="404">e</text>
<text x="592" y="404">r</text>
<text x="600" y="404">(</text>
<text x="608" y="404">)</text>
<text x="616" y="404">}</text>
<text x="760" y="404">s</text>
<text x="768" y="404">u</text>
<text x="776" y="404">i</text>
<text x="784" y="404">t</text>
<text x="792" y="404">_</text>
<text x="800" y="404">e</text>
<text x="808" y="404">x</text>
<text x="816" y="404">t</text>
<text x="824" y="404">e</text>
<text x="832" y="404">n</text>
<text x="840" y="404">d</text>
<text x="848" y="404">_</text>
<text x="856" y="404">p</text>
<text x="864" y="404">a</text>
<text x="872" y="404">r</text>
<text x="880" y="404">a</text>
<text x="888" y="404">m</text>
<text x="896" y="404">e</text>
<text x="904" y="404">t</text>
<text x="912" y="404">e</text>
<text x="920" y="404">r</text>
<text x="928" y="404">(</text>
<text x="936" y="404">)</text>
<text x="952" y="404">{</text>
<text x="960" y="404">}</text>
<text x="24" y="420">}</text>
<text x="360" y="436">}</text>
<text x="360" y="452">i</text>
<text x="368" y="452">n</text>
<text x="376" y="452">v</text>
<text x="384" y="452">o</text>
<text x="392" y="452">k</text>
<text x="400" y="452">e</text>
<text x="408" y="452">(</text>
<text x="416" y="452">m</text>
<text x="424" y="452">)</text>
<text x="440" y="452">{</text>
<text x="376" y="468">p</text>
<text x="392" y="468">=</text>
<text x="408" y="468">e</text>
<text x="416" y="468">x</text>
<text x="424" y="468">t</text>
<text x="432" y="468">r</text>
<text x="440" y="468">a</text>
<text x="448" y="468">c</text>
<text x="456" y="468">t</text>
<text x="464" y="468">_</text>
<text x="472" y="468">p</text>
<text x="480" y="468">a</text>
<text x="488" y="468">r</text>
<text x="496" y="468">a</text>
<text x="504" y="468">m</text>
<text x="512" y="468">s</text>
<text x="520" y="468">(</text>
<text x="528" y="468">m</text>
<text x="536" y="468">.</text>
<text x="544" y="468">s</text>
<text x="552" y="468">h</text>
<text x="560" y="468">a</text>
<text x="568" y="468">r</text>
<text x="576" y="468">e</text>
<text x="584" y="468">d</text>
<text x="592" y="468">,</text>
<text x="608" y="468">m</text>
<text x="616" y="468">.</text>
<text x="624" y="468">i</text>
<text x="632" y="468">n</text>
<text x="640" y="468">v</text>
<text x="648" y="468">o</text>
<text x="656" y="468">k</text>
<text x="664" y="468">e</text>
<text x="672" y="468">)</text>
<text x="376" y="484">s</text>
<text x="384" y="484">u</text>
<text x="392" y="484">i</text>
<text x="400" y="484">t</text>
<text x="408" y="484">_</text>
<text x="416" y="484">r</text>
<text x="424" y="484">e</text>
<text x="432" y="484">p</text>
<text x="440" y="484">o</text>
<text x="448" y="484">r</text>
<text x="456" y="484">t</text>
<text x="464" y="484">_</text>
<text x="472" y="484">f</text>
<text x="480" y="484">i</text>
<text x="488" y="484">n</text>
<text x="496" y="484">a</text>
<text x="504" y="484">l</text>
<text x="512" y="484">i</text>
<text x="520" y="484">z</text>
<text x="528" y="484">e</text>
<text x="536" y="484">(</text>
<text x="544" y="484">)</text>
<text x="760" y="484">s</text>
<text x="768" y="484">u</text>
<text x="776" y="484">i</text>
<text x="784" y="484">t</text>
<text x="792" y="484">_</text>
<text x="800" y="484">r</text>
<text x="808" y="484">e</text>
<text x="816" y="484">p</text>
<text x="824" y="484">o</text>
<text x="832" y="484">r</text>
<text x="840" y="484">t</text>
<text x="848" y="484">_</text>
<text x="856" y="484">f</text>
<text x="864" y="484">i</text>
<text x="872" y="484">n</text>
<text x="880" y="484">a</text>
<text x="888" y="484">l</text>
<text x="896" y="484">i</text>
<text x="904" y="484">z</text>
<text x="912" y="484">e</text>
<text x="920" y="484">(</text>
<text x="928" y="484">)</text>
<text x="944" y="484">{</text>
<text x="24" y="500">s</text>
<text x="32" y="500">u</text>
<text x="40" y="500">i</text>
<text x="48" y="500">t</text>
<text x="56" y="500">_</text>
<text x="64" y="500">r</text>
<text x="72" y="500">e</text>
<text x="80" y="500">p</text>
<text x="88" y="500">o</text>
<text x="96" y="500">r</text>
<text x="104" y="500">t</text>
<text x="112" y="500">_</text>
<text x="120" y="500">c</text>
<text x="128" y="500">a</text>
<text x="136" y="500">l</text>
<text x="144" y="500">l</text>
<text x="152" y="500">b</text>
<text x="160" y="500">a</text>
<text x="168" y="500">c</text>
<text x="176" y="500">k</text>
<text x="184" y="500">(</text>
<text x="192" y="500">)</text>
<text x="208" y="500">{</text>
<text x="376" y="500">s</text>
<text x="384" y="500">u</text>
<text x="392" y="500">i</text>
<text x="400" y="500">t</text>
<text x="408" y="500">_</text>
<text x="416" y="500">r</text>
<text x="424" y="500">e</text>
<text x="432" y="500">p</text>
<text x="440" y="500">o</text>
<text x="448" y="500">r</text>
<text x="456" y="500">t</text>
<text x="464" y="500">_</text>
<text x="472" y="500">c</text>
<text x="480" y="500">a</text>
<text x="488" y="500">l</text>
<text x="496" y="500">l</text>
<text x="504" y="500">b</text>
<text x="512" y="500">a</text>
<text x="520" y="500">c</text>
<text x="528" y="500">k</text>
<text x="536" y="500">(</text>
<text x="544" y="500">)</text>
<text x="776" y="500">a</text>
<text x="784" y="500">d</text>
<text x="792" y="500">d</text>
<text x="800" y="500">_</text>
<text x="808" y="500">r</text>
<text x="816" y="500">e</text>
<text x="824" y="500">s</text>
<text x="832" y="500">u</text>
<text x="840" y="500">l</text>
<text x="848" y="500">t</text>
<text x="856" y="500">(</text>
<text x="864" y="500">)</text>
<text x="872" y="500">;</text>
<text x="888" y="500">s</text>
<text x="896" y="500">i</text>
<text x="904" y="500">g</text>
<text x="912" y="500">n</text>
<text x="920" y="500">(</text>
<text x="928" y="500">)</text>
<text x="40" y="516">h</text>
<text x="48" y="516">t</text>
<text x="56" y="516">t</text>
<text x="64" y="516">p</text>
<text x="72" y="516">_</text>
<text x="80" y="516">p</text>
<text x="88" y="516">o</text>
<text x="96" y="516">s</text>
<text x="104" y="516">t</text>
<text x="112" y="516">(</text>
<text x="120" y="516">u</text>
<text x="128" y="516">r</text>
<text x="136" y="516">i</text>
<text x="144" y="516">,</text>
<text x="160" y="516">s</text>
<text x="168" y="516">u</text>
<text x="176" y="516">i</text>
<text x="184" y="516">t</text>
<text x="192" y="516">_</text>
<text x="200" y="516">r</text>
<text x="208" y="516">e</text>
<text x="216" y="516">p</text>
<text x="224" y="516">o</text>
<text x="232" y="516">r</text>
<text x="240" y="516">t</text>
<text x="248" y="516">)</text>
<text x="760" y="516">}</text>
<text x="24" y="532">}</text>
<text x="24" y="548">s</text>
<text x="32" y="548">u</text>
<text x="40" y="548">i</text>
<text x="48" y="548">t</text>
<text x="56" y="548">_</text>
<text x="64" y="548">i</text>
<text x="72" y="548">n</text>
<text x="80" y="548">v</text>
<text x="88" y="548">o</text>
<text x="96" y="548">k</text>
<text x="104" y="548">e</text>
<text x="112" y="548">_</text>
<text x="120" y="548">c</text>
<text x="128" y="548">a</text>
<text x="136" y="548">l</text>
<text x="144" y="548">l</text>
<text x="152" y="548">b</text>
<text x="160" y="548">a</text>
<text x="168" y="548">c</text>
<text x="176" y="548">k</text>
<text x="184" y="548">(</text>
<text x="192" y="548">)</text>
<text x="208" y="548">{</text>
<text x="376" y="548">s</text>
<text x="384" y="548">u</text>
<text x="392" y="548">i</text>
<text x="400" y="548">t</text>
<text x="408" y="548">_</text>
<text x="416" y="548">i</text>
<text x="424" y="548">n</text>
<text x="432" y="548">v</text>
<text x="440" y="548">o</text>
<text x="448" y="548">k</text>
<text x="456" y="548">e</text>
<text x="464" y="548">_</text>
<text x="472" y="548">c</text>
<text x="480" y="548">a</text>
<text x="488" y="548">l</text>
<text x="496" y="548">l</text>
<text x="504" y="548">b</text>
<text x="512" y="548">a</text>
<text x="520" y="548">c</text>
<text x="528" y="548">k</text>
<text x="536" y="548">(</text>
<text x="544" y="548">p</text>
<text x="552" y="548">.</text>
<text x="560" y="548">d</text>
<text x="568" y="548">s</text>
<text x="576" y="548">t</text>
<text x="584" y="548">,</text>
<text x="600" y="548">p</text>
<text x="608" y="548">.</text>
<text x="616" y="548">a</text>
<text x="624" y="548">r</text>
<text x="632" y="548">g</text>
<text x="640" y="548">s</text>
<text x="648" y="548">)</text>
<text x="40" y="564">r</text>
<text x="48" y="564">e</text>
<text x="56" y="564">t</text>
<text x="64" y="564">u</text>
<text x="72" y="564">r</text>
<text x="80" y="564">n</text>
<text x="96" y="564">s</text>
<text x="104" y="564">y</text>
<text x="112" y="564">s</text>
<text x="120" y="564">t</text>
<text x="128" y="564">e</text>
<text x="136" y="564">m</text>
<text x="144" y="564">(</text>
<text x="152" y="564">a</text>
<text x="160" y="564">r</text>
<text x="168" y="564">g</text>
<text x="176" y="564">s</text>
<text x="184" y="564">)</text>
<text x="360" y="564">}</text>
<text x="24" y="580">}</text>
</g>
</svg>
