<svg xmlns="http://www.w3.org/2000/svg" version="1.1" height="608" width="1032" viewBox="0 0 1032 608" class="diagram" text-anchor="middle" font-family="monospace" font-size="13px" stroke-linecap="round">
<rect class="backdrop" x="0" y="0" width="1032" height="608" rx="3px" ry="3px" fill="white" opacity="0.9"/>
<path d="M 8,16 L 8,592" fill="none" stroke="black"/>
<path d="M 296,16 L 296,592" fill="none" stroke="black"/>
<path d="M 336,112 L 336,560" fill="none" stroke="black"/>
<path d="M 704,112 L 704,560" fill="none" stroke="black"/>
<path d="M 744,48 L 744,512" fill="none" stroke="black"/>
<path d="M 1024,48 L 1024,512" fill="none" stroke="black"/>
<path d="M 8,16 L 24,16" fill="none" stroke="black"/>
<path d="M 56,16 L 296,16" fill="none" stroke="black"/>
<path d="M 744,48 L 760,48" fill="none" stroke="black"/>
<path d="M 1008,48 L 1024,48" fill="none" stroke="black"/>
<path d="M 296,62 L 736,62" fill="none" stroke="black"/><path d="M 296,66 L 736,66" fill="none" stroke="black"/>
<path d="M 304,78 L 744,78" fill="none" stroke="black"/><path d="M 304,82 L 744,82" fill="none" stroke="black"/>
<path d="M 336,112 L 352,112" fill="none" stroke="black"/>
<path d="M 616,112 L 704,112" fill="none" stroke="black"/>
<path d="M 296,126 L 328,126" fill="none" stroke="black"/><path d="M 296,130 L 328,130" fill="none" stroke="black"/>
<path d="M 296,142 L 328,142" fill="none" stroke="black"/><path d="M 296,146 L 328,146" fill="none" stroke="black"/>
<path d="M 704,158 L 736,158" fill="none" stroke="black"/><path d="M 704,162 L 736,162" fill="none" stroke="black"/>
<path d="M 712,174 L 744,174" fill="none" stroke="black"/><path d="M 712,178 L 744,178" fill="none" stroke="black"/>
<path d="M 304,206 L 336,206" fill="none" stroke="black"/><path d="M 304,210 L 336,210" fill="none" stroke="black"/>
<path d="M 296,238 L 328,238" fill="none" stroke="black"/><path d="M 296,242 L 328,242" fill="none" stroke="black"/>
<path d="M 704,254 L 736,254" fill="none" stroke="black"/><path d="M 704,258 L 736,258" fill="none" stroke="black"/>
<path d="M 712,270 L 744,270" fill="none" stroke="black"/><path d="M 712,274 L 744,274" fill="none" stroke="black"/>
<path d="M 304,286 L 336,286" fill="none" stroke="black"/><path d="M 304,290 L 336,290" fill="none" stroke="black"/>
<path d="M 296,350 L 328,350" fill="none" stroke="black"/><path d="M 296,354 L 328,354" fill="none" stroke="black"/>
<path d="M 704,350 L 736,350" fill="none" stroke="black"/><path d="M 704,354 L 736,354" fill="none" stroke="black"/>
<path d="M 712,366 L 744,366" fill="none" stroke="black"/><path d="M 712,370 L 744,370" fill="none" stroke="black"/>
<path d="M 704,382 L 736,382" fill="none" stroke="black"/><path d="M 704,386 L 736,386" fill="none" stroke="black"/>
<path d="M 712,398 L 744,398" fill="none" stroke="black"/><path d="M 712,402 L 744,402" fill="none" stroke="black"/>
<path d="M 704,462 L 736,462" fill="none" stroke="black"/><path d="M 704,466 L 736,466" fill="none" stroke="black"/>
<path d="M 304,478 L 336,478" fill="none" stroke="black"/><path d="M 304,482 L 336,482" fill="none" stroke="black"/>
<path d="M 712,478 L 744,478" fill="none" stroke="black"/><path d="M 712,482 L 744,482" fill="none" stroke="black"/>
<path d="M 296,494 L 328,494" fill="none" stroke="black"/><path d="M 296,498 L 328,498" fill="none" stroke="black"/>
<path d="M 744,512 L 1024,512" fill="none" stroke="black"/>
<path d="M 304,526 L 336,526" fill="none" stroke="black"/><path d="M 304,530 L 336,530" fill="none" stroke="black"/>
<path d="M 336,560 L 704,560" fill="none" stroke="black"/>
<path d="M 8,592 L 296,592" fill="none" stroke="black"/>
<polygon class="arrowhead" points="744,464 732,458.4 732,469.6" fill="black" transform="rotate(0,736,464)"/>
<polygon class="arrowhead" points="744,384 732,378.4 732,389.6" fill="black" transform="rotate(0,736,384)"/>
<polygon class="arrowhead" points="744,352 732,346.4 732,357.6" fill="black" transform="rotate(0,736,352)"/>
<polygon class="arrowhead" points="744,256 732,250.4 732,261.6" fill="black" transform="rotate(0,736,256)"/>
<polygon class="arrowhead" points="744,160 732,154.4 732,165.6" fill="black" transform="rotate(0,736,160)"/>
<polygon class="arrowhead" points="744,64 732,58.4 732,69.6" fill="black" transform="rotate(0,736,64)"/>
<polygon class="arrowhead" points="720,480 708,474.4 708,485.6" fill="black" transform="rotate(180,712,480)"/>
<polygon class="arrowhead" points="720,400 708,394.4 708,405.6" fill="black" transform="rotate(180,712,400)"/>
<polygon class="arrowhead" points="720,368 708,362.4 708,373.6" fill="black" transform="rotate(180,712,368)"/>
<polygon class="arrowhead" points="720,272 708,266.4 708,277.6" fill="black" transform="rotate(180,712,272)"/>
<polygon class="arrowhead" points="720,176 708,170.4 708,181.6" fill="black" transform="rotate(180,712,176)"/>
<polygon class="arrowhead" points="336,496 324,490.4 324,501.6" fill="black" transform="rotate(0,328,496)"/>
<polygon class="arrowhead" points="336,352 324,346.4 324,357.6" fill="black" transform="rotate(0,328,352)"/>
<polygon class="arrowhead" points="336,240 324,234.4 324,245.6" fill="black" transform="rotate(0,328,240)"/>
<polygon class="arrowhead" points="336,144 324,138.4 324,149.6" fill="black" transform="rotate(0,328,144)"/>
<polygon class="arrowhead" points="336,128 324,122.4 324,133.6" fill="black" transform="rotate(0,328,128)"/>
<polygon class="arrowhead" points="312,528 300,522.4 300,533.6" fill="black" transform="rotate(180,304,528)"/>
<polygon class="arrowhead" points="312,480 300,474.4 300,485.6" fill="black" transform="rotate(180,304,480)"/>
<polygon class="arrowhead" points="312,288 300,282.4 300,293.6" fill="black" transform="rotate(180,304,288)"/>
<polygon class="arrowhead" points="312,208 300,202.4 300,213.6" fill="black" transform="rotate(180,304,208)"/>
<polygon class="arrowhead" points="312,80 300,74.4 300,85.6" fill="black" transform="rotate(180,304,80)"/>
<g class="text">
<text x="32" y="20">A</text>
<text x="40" y="20">p</text>
<text x="48" y="20">p</text>
<text x="24" y="36">m</text>
<text x="32" y="36">a</text>
<text x="40" y="36">i</text>
<text x="48" y="36">n</text>
<text x="56" y="36">(</text>
<text x="64" y="36">)</text>
<text x="80" y="36">{</text>
<text x="40" y="52">r</text>
<text x="48" y="52">e</text>
<text x="56" y="52">p</text>
<text x="64" y="52">o</text>
<text x="72" y="52">r</text>
<text x="80" y="52">t</text>
<text x="88" y="52">_</text>
<text x="96" y="52">k</text>
<text x="104" y="52">e</text>
<text x="112" y="52">y</text>
<text x="128" y="52">=</text>
<text x="144" y="52">i</text>
<text x="152" y="52">n</text>
<text x="160" y="52">i</text>
<text x="168" y="52">t</text>
<text x="176" y="52">_</text>
<text x="184" y="52">s</text>
<text x="192" y="52">i</text>
<text x="200" y="52">g</text>
<text x="208" y="52">n</text>
<text x="216" y="52">i</text>
<text x="224" y="52">n</text>
<text x="232" y="52">g</text>
<text x="240" y="52">_</text>
<text x="248" y="52">k</text>
<text x="256" y="52">e</text>
<text x="264" y="52">y</text>
<text x="272" y="52">(</text>
<text x="280" y="52">)</text>
<text x="768" y="52">l</text>
<text x="776" y="52">i</text>
<text x="784" y="52">b</text>
<text x="792" y="52">c</text>
<text x="800" y="52">s</text>
<text x="808" y="52">u</text>
<text x="816" y="52">i</text>
<text x="824" y="52">t</text>
<text x="840" y="52">S</text>
<text x="848" y="52">U</text>
<text x="856" y="52">I</text>
<text x="864" y="52">T</text>
<text x="880" y="52">R</text>
<text x="888" y="52">e</text>
<text x="896" y="52">p</text>
<text x="904" y="52">o</text>
<text x="912" y="52">r</text>
<text x="920" y="52">t</text>
<text x="928" y="52">i</text>
<text x="936" y="52">n</text>
<text x="944" y="52">g</text>
<text x="960" y="52">E</text>
<text x="968" y="52">n</text>
<text x="976" y="52">g</text>
<text x="984" y="52">i</text>
<text x="992" y="52">n</text>
<text x="1000" y="52">e</text>
<text x="40" y="68">s</text>
<text x="48" y="68">u</text>
<text x="56" y="68">i</text>
<text x="64" y="68">t</text>
<text x="72" y="68">_</text>
<text x="80" y="68">r</text>
<text x="88" y="68">e</text>
<text x="96" y="68">p</text>
<text x="104" y="68">o</text>
<text x="112" y="68">r</text>
<text x="120" y="68">t</text>
<text x="128" y="68">_</text>
<text x="136" y="68">e</text>
<text x="144" y="68">n</text>
<text x="152" y="68">g</text>
<text x="160" y="68">i</text>
<text x="168" y="68">n</text>
<text x="176" y="68">e</text>
<text x="184" y="68">_</text>
<text x="192" y="68">i</text>
<text x="200" y="68">n</text>
<text x="208" y="68">i</text>
<text x="216" y="68">t</text>
<text x="224" y="68">(</text>
<text x="232" y="68">r</text>
<text x="240" y="68">k</text>
<text x="248" y="68">e</text>
<text x="256" y="68">y</text>
<text x="264" y="68">)</text>
<text x="760" y="68">s</text>
<text x="768" y="68">u</text>
<text x="776" y="68">i</text>
<text x="784" y="68">t</text>
<text x="792" y="68">_</text>
<text x="800" y="68">r</text>
<text x="808" y="68">e</text>
<text x="816" y="68">p</text>
<text x="824" y="68">o</text>
<text x="832" y="68">r</text>
<text x="840" y="68">t</text>
<text x="848" y="68">_</text>
<text x="856" y="68">e</text>
<text x="864" y="68">n</text>
<text x="872" y="68">g</text>
<text x="880" y="68">i</text>
<text x="888" y="68">n</text>
<text x="896" y="68">e</text>
<text x="904" y="68">_</text>
<text x="912" y="68">i</text>
<text x="920" y="68">n</text>
<text x="928" y="68">i</text>
<text x="936" y="68">t</text>
<text x="944" y="68">(</text>
<text x="952" y="68">)</text>
<text x="968" y="68">{</text>
<text x="976" y="68">}</text>
<text x="40" y="100">r</text>
<text x="48" y="100">e</text>
<text x="56" y="100">c</text>
<text x="64" y="100">i</text>
<text x="72" y="100">p</text>
<text x="80" y="100">i</text>
<text x="88" y="100">e</text>
<text x="96" y="100">n</text>
<text x="104" y="100">t</text>
<text x="112" y="100">_</text>
<text x="120" y="100">k</text>
<text x="128" y="100">e</text>
<text x="136" y="100">y</text>
<text x="144" y="100">s</text>
<text x="160" y="100">=</text>
<text x="176" y="100">i</text>
<text x="184" y="100">n</text>
<text x="192" y="100">i</text>
<text x="200" y="100">t</text>
<text x="208" y="100">_</text>
<text x="216" y="100">k</text>
<text x="224" y="100">e</text>
<text x="232" y="100">y</text>
<text x="240" y="100">s</text>
<text x="248" y="100">(</text>
<text x="256" y="100">)</text>
<text x="40" y="116">m</text>
<text x="56" y="116">=</text>
<text x="72" y="116">g</text>
<text x="80" y="116">e</text>
<text x="88" y="116">t</text>
<text x="96" y="116">_</text>
<text x="104" y="116">m</text>
<text x="112" y="116">a</text>
<text x="120" y="116">n</text>
<text x="128" y="116">i</text>
<text x="136" y="116">f</text>
<text x="144" y="116">e</text>
<text x="152" y="116">s</text>
<text x="160" y="116">t</text>
<text x="168" y="116">(</text>
<text x="176" y="116">)</text>
<text x="360" y="116">l</text>
<text x="368" y="116">i</text>
<text x="376" y="116">b</text>
<text x="384" y="116">c</text>
<text x="392" y="116">s</text>
<text x="400" y="116">u</text>
<text x="408" y="116">i</text>
<text x="416" y="116">t</text>
<text x="432" y="116">S</text>
<text x="440" y="116">U</text>
<text x="448" y="116">I</text>
<text x="456" y="116">T</text>
<text x="472" y="116">M</text>
<text x="480" y="116">a</text>
<text x="488" y="116">n</text>
<text x="496" y="116">i</text>
<text x="504" y="116">f</text>
<text x="512" y="116">e</text>
<text x="520" y="116">s</text>
<text x="528" y="116">t</text>
<text x="544" y="116">P</text>
<text x="552" y="116">r</text>
<text x="560" y="116">o</text>
<text x="568" y="116">c</text>
<text x="576" y="116">e</text>
<text x="584" y="116">s</text>
<text x="592" y="116">s</text>
<text x="600" y="116">o</text>
<text x="608" y="116">r</text>
<text x="40" y="132">s</text>
<text x="48" y="132">u</text>
<text x="56" y="132">i</text>
<text x="64" y="132">t</text>
<text x="72" y="132">_</text>
<text x="80" y="132">p</text>
<text x="88" y="132">r</text>
<text x="96" y="132">o</text>
<text x="104" y="132">c</text>
<text x="112" y="132">e</text>
<text x="120" y="132">s</text>
<text x="128" y="132">s</text>
<text x="136" y="132">o</text>
<text x="144" y="132">r</text>
<text x="152" y="132">_</text>
<text x="160" y="132">i</text>
<text x="168" y="132">n</text>
<text x="176" y="132">i</text>
<text x="184" y="132">t</text>
<text x="192" y="132">(</text>
<text x="200" y="132">)</text>
<text x="352" y="132">s</text>
<text x="360" y="132">u</text>
<text x="368" y="132">i</text>
<text x="376" y="132">t</text>
<text x="384" y="132">_</text>
<text x="392" y="132">p</text>
<text x="400" y="132">r</text>
<text x="408" y="132">o</text>
<text x="416" y="132">c</text>
<text x="424" y="132">e</text>
<text x="432" y="132">s</text>
<text x="440" y="132">s</text>
<text x="448" y="132">o</text>
<text x="456" y="132">r</text>
<text x="464" y="132">_</text>
<text x="472" y="132">i</text>
<text x="480" y="132">n</text>
<text x="488" y="132">i</text>
<text x="496" y="132">t</text>
<text x="504" y="132">(</text>
<text x="512" y="132">)</text>
<text x="528" y="132">{</text>
<text x="536" y="132">}</text>
<text x="40" y="148">s</text>
<text x="48" y="148">u</text>
<text x="56" y="148">i</text>
<text x="64" y="148">t</text>
<text x="72" y="148">_</text>
<text x="80" y="148">p</text>
<text x="88" y="148">r</text>
<text x="96" y="148">o</text>
<text x="104" y="148">c</text>
<text x="112" y="148">e</text>
<text x="120" y="148">s</text>
<text x="128" y="148">s</text>
<text x="136" y="148">_</text>
<text x="144" y="148">e</text>
<text x="152" y="148">n</text>
<text x="160" y="148">v</text>
<text x="168" y="148">e</text>
<text x="176" y="148">l</text>
<text x="184" y="148">o</text>
<text x="192" y="148">p</text>
<text x="200" y="148">e</text>
<text x="208" y="148">(</text>
<text x="216" y="148">m</text>
<text x="224" y="148">,</text>
<text x="240" y="148">k</text>
<text x="248" y="148">e</text>
<text x="256" y="148">y</text>
<text x="264" y="148">s</text>
<text x="272" y="148">)</text>
<text x="352" y="148">s</text>
<text x="360" y="148">u</text>
<text x="368" y="148">i</text>
<text x="376" y="148">t</text>
<text x="384" y="148">_</text>
<text x="392" y="148">p</text>
<text x="400" y="148">r</text>
<text x="408" y="148">o</text>
<text x="416" y="148">c</text>
<text x="424" y="148">e</text>
<text x="432" y="148">s</text>
<text x="440" y="148">s</text>
<text x="448" y="148">_</text>
<text x="456" y="148">e</text>
<text x="464" y="148">n</text>
<text x="472" y="148">v</text>
<text x="480" y="148">e</text>
<text x="488" y="148">l</text>
<text x="496" y="148">o</text>
<text x="504" y="148">p</text>
<text x="512" y="148">e</text>
<text x="520" y="148">(</text>
<text x="528" y="148">)</text>
<text x="544" y="148">{</text>
<text x="40" y="164">}</text>
<text x="368" y="164">c</text>
<text x="376" y="164">h</text>
<text x="384" y="164">e</text>
<text x="392" y="164">c</text>
<text x="400" y="164">k</text>
<text x="408" y="164">_</text>
<text x="416" y="164">d</text>
<text x="424" y="164">i</text>
<text x="432" y="164">g</text>
<text x="440" y="164">e</text>
<text x="448" y="164">s</text>
<text x="456" y="164">t</text>
<text x="464" y="164">s</text>
<text x="472" y="164">(</text>
<text x="480" y="164">k</text>
<text x="488" y="164">e</text>
<text x="496" y="164">y</text>
<text x="504" y="164">s</text>
<text x="512" y="164">,</text>
<text x="528" y="164">m</text>
<text x="536" y="164">)</text>
<text x="760" y="164">s</text>
<text x="768" y="164">u</text>
<text x="776" y="164">i</text>
<text x="784" y="164">t</text>
<text x="792" y="164">_</text>
<text x="800" y="164">r</text>
<text x="808" y="164">e</text>
<text x="816" y="164">p</text>
<text x="824" y="164">o</text>
<text x="832" y="164">r</text>
<text x="840" y="164">t</text>
<text x="848" y="164">_</text>
<text x="856" y="164">m</text>
<text x="864" y="164">a</text>
<text x="872" y="164">n</text>
<text x="880" y="164">i</text>
<text x="888" y="164">f</text>
<text x="896" y="164">e</text>
<text x="904" y="164">s</text>
<text x="912" y="164">t</text>
<text x="920" y="164">_</text>
<text x="928" y="164">d</text>
<text x="936" y="164">i</text>
<text x="944" y="164">g</text>
<text x="952" y="164">e</text>
<text x="960" y="164">s</text>
<text x="968" y="164">t</text>
<text x="976" y="164">(</text>
<text x="984" y="164">)</text>
<text x="1000" y="164">{</text>
<text x="1008" y="164">}</text>
<text x="24" y="180">}</text>
<text x="368" y="180">i</text>
<text x="376" y="180">n</text>
<text x="384" y="180">s</text>
<text x="392" y="180">t</text>
<text x="400" y="180">a</text>
<text x="408" y="180">l</text>
<text x="416" y="180">l</text>
<text x="424" y="180">(</text>
<text x="432" y="180">m</text>
<text x="440" y="180">)</text>
<text x="456" y="180">{</text>
<text x="384" y="196">p</text>
<text x="400" y="196">=</text>
<text x="416" y="196">e</text>
<text x="424" y="196">x</text>
<text x="432" y="196">t</text>
<text x="440" y="196">r</text>
<text x="448" y="196">a</text>
<text x="456" y="196">c</text>
<text x="464" y="196">t</text>
<text x="472" y="196">_</text>
<text x="480" y="196">p</text>
<text x="488" y="196">a</text>
<text x="496" y="196">r</text>
<text x="504" y="196">a</text>
<text x="512" y="196">m</text>
<text x="520" y="196">s</text>
<text x="528" y="196">(</text>
<text x="536" y="196">m</text>
<text x="544" y="196">.</text>
<text x="552" y="196">s</text>
<text x="560" y="196">h</text>
<text x="568" y="196">a</text>
<text x="576" y="196">r</text>
<text x="584" y="196">e</text>
<text x="592" y="196">d</text>
<text x="600" y="196">,</text>
<text x="616" y="196">m</text>
<text x="624" y="196">.</text>
<text x="632" y="196">i</text>
<text x="640" y="196">n</text>
<text x="648" y="196">s</text>
<text x="656" y="196">t</text>
<text x="664" y="196">a</text>
<text x="672" y="196">l</text>
<text x="680" y="196">l</text>
<text x="688" y="196">)</text>
<text x="24" y="212">s</text>
<text x="32" y="212">u</text>
<text x="40" y="212">i</text>
<text x="48" y="212">t</text>
<text x="56" y="212">_</text>
<text x="64" y="212">f</text>
<text x="72" y="212">e</text>
<text x="80" y="212">t</text>
<text x="88" y="212">c</text>
<text x="96" y="212">h</text>
<text x="104" y="212">_</text>
<text x="112" y="212">c</text>
<text x="120" y="212">a</text>
<text x="128" y="212">l</text>
<text x="136" y="212">l</text>
<text x="144" y="212">b</text>
<text x="152" y="212">a</text>
<text x="160" y="212">c</text>
<text x="168" y="212">k</text>
<text x="176" y="212">(</text>
<text x="184" y="212">)</text>
<text x="200" y="212">{</text>
<text x="384" y="212">s</text>
<text x="392" y="212">u</text>
<text x="400" y="212">i</text>
<text x="408" y="212">t</text>
<text x="416" y="212">_</text>
<text x="424" y="212">f</text>
<text x="432" y="212">e</text>
<text x="440" y="212">t</text>
<text x="448" y="212">c</text>
<text x="456" y="212">h</text>
<text x="464" y="212">_</text>
<text x="472" y="212">c</text>
<text x="480" y="212">a</text>
<text x="488" y="212">l</text>
<text x="496" y="212">l</text>
<text x="504" y="212">b</text>
<text x="512" y="212">a</text>
<text x="520" y="212">c</text>
<text x="528" y="212">k</text>
<text x="536" y="212">(</text>
<text x="544" y="212">p</text>
<text x="552" y="212">.</text>
<text x="560" y="212">d</text>
<text x="568" y="212">s</text>
<text x="576" y="212">t</text>
<text x="584" y="212">,</text>
<text x="600" y="212">p</text>
<text x="608" y="212">.</text>
<text x="616" y="212">u</text>
<text x="624" y="212">r</text>
<text x="632" y="212">i</text>
<text x="640" y="212">)</text>
<text x="40" y="228">h</text>
<text x="48" y="228">t</text>
<text x="56" y="228">t</text>
<text x="64" y="228">p</text>
<text x="72" y="228">_</text>
<text x="80" y="228">g</text>
<text x="88" y="228">e</text>
<text x="96" y="228">t</text>
<text x="104" y="228">(</text>
<text x="112" y="228">u</text>
<text x="120" y="228">r</text>
<text x="128" y="228">i</text>
<text x="136" y="228">,</text>
<text x="152" y="228">p</text>
<text x="160" y="228">t</text>
<text x="168" y="228">r</text>
<text x="176" y="228">)</text>
<text x="40" y="244">r</text>
<text x="48" y="244">e</text>
<text x="56" y="244">t</text>
<text x="64" y="244">u</text>
<text x="72" y="244">r</text>
<text x="80" y="244">n</text>
<text x="96" y="244">S</text>
<text x="104" y="244">U</text>
<text x="112" y="244">I</text>
<text x="120" y="244">T</text>
<text x="128" y="244">_</text>
<text x="136" y="244">S</text>
<text x="144" y="244">U</text>
<text x="152" y="244">C</text>
<text x="160" y="244">C</text>
<text x="168" y="244">E</text>
<text x="176" y="244">S</text>
<text x="184" y="244">S</text>
<text x="384" y="244">i</text>
<text x="392" y="244">f</text>
<text x="408" y="244">(</text>
<text x="416" y="244">p</text>
<text x="424" y="244">.</text>
<text x="432" y="244">r</text>
<text x="440" y="244">e</text>
<text x="448" y="244">p</text>
<text x="456" y="244">o</text>
<text x="464" y="244">r</text>
<text x="472" y="244">t</text>
<text x="488" y="244">=</text>
<text x="496" y="244">=</text>
<text x="512" y="244">R</text>
<text x="520" y="244">E</text>
<text x="528" y="244">P</text>
<text x="536" y="244">O</text>
<text x="544" y="244">R</text>
<text x="552" y="244">T</text>
<text x="560" y="244">_</text>
<text x="568" y="244">O</text>
<text x="576" y="244">N</text>
<text x="584" y="244">_</text>
<text x="592" y="244">S</text>
<text x="600" y="244">U</text>
<text x="608" y="244">C</text>
<text x="616" y="244">C</text>
<text x="624" y="244">E</text>
<text x="632" y="244">S</text>
<text x="640" y="244">S</text>
<text x="648" y="244">)</text>
<text x="664" y="244">{</text>
<text x="24" y="260">}</text>
<text x="400" y="260">s</text>
<text x="408" y="260">u</text>
<text x="416" y="260">i</text>
<text x="424" y="260">t</text>
<text x="432" y="260">_</text>
<text x="440" y="260">e</text>
<text x="448" y="260">x</text>
<text x="456" y="260">t</text>
<text x="464" y="260">e</text>
<text x="472" y="260">n</text>
<text x="480" y="260">d</text>
<text x="488" y="260">_</text>
<text x="496" y="260">p</text>
<text x="504" y="260">a</text>
<text x="512" y="260">r</text>
<text x="520" y="260">a</text>
<text x="528" y="260">m</text>
<text x="536" y="260">e</text>
<text x="544" y="260">t</text>
<text x="552" y="260">e</text>
<text x="560" y="260">r</text>
<text x="568" y="260">(</text>
<text x="576" y="260">e</text>
<text x="584" y="260">r</text>
<text x="592" y="260">r</text>
<text x="600" y="260">,</text>
<text x="616" y="260">a</text>
<text x="624" y="260">t</text>
<text x="632" y="260">)</text>
<text x="760" y="260">s</text>
<text x="768" y="260">u</text>
<text x="776" y="260">i</text>
<text x="784" y="260">t</text>
<text x="792" y="260">_</text>
<text x="800" y="260">e</text>
<text x="808" y="260">x</text>
<text x="816" y="260">t</text>
<text x="824" y="260">e</text>
<text x="832" y="260">n</text>
<text x="840" y="260">d</text>
<text x="848" y="260">_</text>
<text x="856" y="260">p</text>
<text x="864" y="260">a</text>
<text x="872" y="260">r</text>
<text x="880" y="260">a</text>
<text x="888" y="260">m</text>
<text x="896" y="260">e</text>
<text x="904" y="260">t</text>
<text x="912" y="260">e</text>
<text x="920" y="260">r</text>
<text x="928" y="260">(</text>
<text x="936" y="260">)</text>
<text x="952" y="260">{</text>
<text x="960" y="260">}</text>
<text x="384" y="276">}</text>
<text x="24" y="292">s</text>
<text x="32" y="292">u</text>
<text x="40" y="292">i</text>
<text x="48" y="292">t</text>
<text x="56" y="292">_</text>
<text x="64" y="292">c</text>
<text x="72" y="292">o</text>
<text x="80" y="292">n</text>
<text x="88" y="292">d</text>
<text x="96" y="292">i</text>
<text x="104" y="292">t</text>
<text x="112" y="292">i</text>
<text x="120" y="292">o</text>
<text x="128" y="292">n</text>
<text x="136" y="292">_</text>
<text x="144" y="292">c</text>
<text x="152" y="292">a</text>
<text x="160" y="292">l</text>
<text x="168" y="292">l</text>
<text x="176" y="292">b</text>
<text x="184" y="292">a</text>
<text x="192" y="292">c</text>
<text x="200" y="292">k</text>
<text x="208" y="292">(</text>
<text x="216" y="292">)</text>
<text x="232" y="292">{</text>
<text x="384" y="292">s</text>
<text x="392" y="292">u</text>
<text x="400" y="292">i</text>
<text x="408" y="292">t</text>
<text x="416" y="292">_</text>
<text x="424" y="292">c</text>
<text x="432" y="292">o</text>
<text x="440" y="292">n</text>
<text x="448" y="292">d</text>
<text x="456" y="292">i</text>
<text x="464" y="292">t</text>
<text x="472" y="292">i</text>
<text x="480" y="292">o</text>
<text x="488" y="292">n</text>
<text x="496" y="292">_</text>
<text x="504" y="292">c</text>
<text x="512" y="292">a</text>
<text x="520" y="292">l</text>
<text x="528" y="292">l</text>
<text x="536" y="292">b</text>
<text x="544" y="292">a</text>
<text x="552" y="292">c</text>
<text x="560" y="292">k</text>
<text x="568" y="292">(</text>
<text x="576" y="292">p</text>
<text x="584" y="292">.</text>
<text x="592" y="292">c</text>
<text x="600" y="292">l</text>
<text x="608" y="292">a</text>
<text x="616" y="292">s</text>
<text x="624" y="292">s</text>
<text x="632" y="292">_</text>
<text x="640" y="292">i</text>
<text x="648" y="292">d</text>
<text x="656" y="292">)</text>
<text x="40" y="308">c</text>
<text x="48" y="308">l</text>
<text x="56" y="308">a</text>
<text x="64" y="308">s</text>
<text x="72" y="308">s</text>
<text x="80" y="308">_</text>
<text x="88" y="308">i</text>
<text x="96" y="308">d</text>
<text x="112" y="308">=</text>
<text x="128" y="308">g</text>
<text x="136" y="308">e</text>
<text x="144" y="308">t</text>
<text x="152" y="308">_</text>
<text x="160" y="308">c</text>
<text x="168" y="308">l</text>
<text x="176" y="308">a</text>
<text x="184" y="308">s</text>
<text x="192" y="308">s</text>
<text x="200" y="308">_</text>
<text x="208" y="308">i</text>
<text x="216" y="308">d</text>
<text x="224" y="308">(</text>
<text x="232" y="308">)</text>
<text x="40" y="324">c</text>
<text x="48" y="324">o</text>
<text x="56" y="324">n</text>
<text x="64" y="324">s</text>
<text x="72" y="324">u</text>
<text x="80" y="324">m</text>
<text x="88" y="324">e</text>
<text x="96" y="324">d</text>
<text x="104" y="324">(</text>
<text x="112" y="324">c</text>
<text x="120" y="324">l</text>
<text x="128" y="324">a</text>
<text x="136" y="324">s</text>
<text x="144" y="324">s</text>
<text x="152" y="324">_</text>
<text x="160" y="324">i</text>
<text x="168" y="324">d</text>
<text x="176" y="324">)</text>
<text x="40" y="340">i</text>
<text x="48" y="340">f</text>
<text x="64" y="340">(</text>
<text x="72" y="340">c</text>
<text x="80" y="340">l</text>
<text x="88" y="340">a</text>
<text x="96" y="340">s</text>
<text x="104" y="340">s</text>
<text x="112" y="340">_</text>
<text x="120" y="340">i</text>
<text x="128" y="340">d</text>
<text x="144" y="340">!</text>
<text x="152" y="340">=</text>
<text x="168" y="340">p</text>
<text x="176" y="340">.</text>
<text x="184" y="340">c</text>
<text x="192" y="340">l</text>
<text x="200" y="340">a</text>
<text x="208" y="340">s</text>
<text x="216" y="340">s</text>
<text x="224" y="340">_</text>
<text x="232" y="340">i</text>
<text x="240" y="340">d</text>
<text x="248" y="340">)</text>
<text x="264" y="340">{</text>
<text x="56" y="356">r</text>
<text x="64" y="356">e</text>
<text x="72" y="356">t</text>
<text x="80" y="356">u</text>
<text x="88" y="356">r</text>
<text x="96" y="356">n</text>
<text x="112" y="356">S</text>
<text x="120" y="356">U</text>
<text x="128" y="356">I</text>
<text x="136" y="356">T</text>
<text x="144" y="356">_</text>
<text x="152" y="356">E</text>
<text x="160" y="356">R</text>
<text x="168" y="356">R</text>
<text x="176" y="356">_</text>
<text x="184" y="356">C</text>
<text x="192" y="356">O</text>
<text x="200" y="356">N</text>
<text x="208" y="356">D</text>
<text x="216" y="356">I</text>
<text x="224" y="356">T</text>
<text x="232" y="356">I</text>
<text x="240" y="356">O</text>
<text x="248" y="356">N</text>
<text x="384" y="356">i</text>
<text x="392" y="356">f</text>
<text x="408" y="356">(</text>
<text x="416" y="356">e</text>
<text x="424" y="356">r</text>
<text x="432" y="356">r</text>
<text x="440" y="356">)</text>
<text x="456" y="356">{</text>
<text x="464" y="356">s</text>
<text x="472" y="356">u</text>
<text x="480" y="356">i</text>
<text x="488" y="356">t</text>
<text x="496" y="356">_</text>
<text x="504" y="356">e</text>
<text x="512" y="356">x</text>
<text x="520" y="356">t</text>
<text x="528" y="356">e</text>
<text x="536" y="356">n</text>
<text x="544" y="356">d</text>
<text x="552" y="356">_</text>
<text x="560" y="356">r</text>
<text x="568" y="356">e</text>
<text x="576" y="356">c</text>
<text x="584" y="356">o</text>
<text x="592" y="356">r</text>
<text x="600" y="356">d</text>
<text x="608" y="356">(</text>
<text x="616" y="356">)</text>
<text x="632" y="356">}</text>
<text x="760" y="356">s</text>
<text x="768" y="356">u</text>
<text x="776" y="356">i</text>
<text x="784" y="356">t</text>
<text x="792" y="356">_</text>
<text x="800" y="356">e</text>
<text x="808" y="356">x</text>
<text x="816" y="356">t</text>
<text x="824" y="356">e</text>
<text x="832" y="356">n</text>
<text x="840" y="356">d</text>
<text x="848" y="356">_</text>
<text x="856" y="356">r</text>
<text x="864" y="356">e</text>
<text x="872" y="356">c</text>
<text x="880" y="356">o</text>
<text x="888" y="356">r</text>
<text x="896" y="356">d</text>
<text x="904" y="356">(</text>
<text x="912" y="356">)</text>
<text x="928" y="356">{</text>
<text x="936" y="356">}</text>
<text x="40" y="372">}</text>
<text x="40" y="388">r</text>
<text x="48" y="388">e</text>
<text x="56" y="388">t</text>
<text x="64" y="388">u</text>
<text x="72" y="388">r</text>
<text x="80" y="388">n</text>
<text x="96" y="388">S</text>
<text x="104" y="388">U</text>
<text x="112" y="388">I</text>
<text x="120" y="388">T</text>
<text x="128" y="388">_</text>
<text x="136" y="388">S</text>
<text x="144" y="388">U</text>
<text x="152" y="388">C</text>
<text x="160" y="388">C</text>
<text x="168" y="388">E</text>
<text x="176" y="388">S</text>
<text x="184" y="388">S</text>
<text x="384" y="388">e</text>
<text x="392" y="388">l</text>
<text x="400" y="388">s</text>
<text x="408" y="388">e</text>
<text x="424" y="388">{</text>
<text x="432" y="388">s</text>
<text x="440" y="388">u</text>
<text x="448" y="388">i</text>
<text x="456" y="388">t</text>
<text x="464" y="388">_</text>
<text x="472" y="388">e</text>
<text x="480" y="388">x</text>
<text x="488" y="388">t</text>
<text x="496" y="388">e</text>
<text x="504" y="388">n</text>
<text x="512" y="388">d</text>
<text x="520" y="388">_</text>
<text x="528" y="388">p</text>
<text x="536" y="388">a</text>
<text x="544" y="388">r</text>
<text x="552" y="388">a</text>
<text x="560" y="388">m</text>
<text x="568" y="388">e</text>
<text x="576" y="388">t</text>
<text x="584" y="388">e</text>
<text x="592" y="388">r</text>
<text x="600" y="388">(</text>
<text x="608" y="388">)</text>
<text x="624" y="388">}</text>
<text x="760" y="388">s</text>
<text x="768" y="388">u</text>
<text x="776" y="388">i</text>
<text x="784" y="388">t</text>
<text x="792" y="388">_</text>
<text x="800" y="388">e</text>
<text x="808" y="388">x</text>
<text x="816" y="388">t</text>
<text x="824" y="388">e</text>
<text x="832" y="388">n</text>
<text x="840" y="388">d</text>
<text x="848" y="388">_</text>
<text x="856" y="388">p</text>
<text x="864" y="388">a</text>
<text x="872" y="388">r</text>
<text x="880" y="388">a</text>
<text x="888" y="388">m</text>
<text x="896" y="388">e</text>
<text x="904" y="388">t</text>
<text x="912" y="388">e</text>
<text x="920" y="388">r</text>
<text x="928" y="388">(</text>
<text x="936" y="388">)</text>
<text x="952" y="388">{</text>
<text x="960" y="388">}</text>
<text x="24" y="404">}</text>
<text x="360" y="420">}</text>
<text x="360" y="436">i</text>
<text x="368" y="436">n</text>
<text x="376" y="436">v</text>
<text x="384" y="436">o</text>
<text x="392" y="436">k</text>
<text x="400" y="436">e</text>
<text x="408" y="436">(</text>
<text x="416" y="436">m</text>
<text x="424" y="436">)</text>
<text x="440" y="436">{</text>
<text x="376" y="452">p</text>
<text x="392" y="452">=</text>
<text x="408" y="452">e</text>
<text x="416" y="452">x</text>
<text x="424" y="452">t</text>
<text x="432" y="452">r</text>
<text x="440" y="452">a</text>
<text x="448" y="452">c</text>
<text x="456" y="452">t</text>
<text x="464" y="452">_</text>
<text x="472" y="452">p</text>
<text x="480" y="452">a</text>
<text x="488" y="452">r</text>
<text x="496" y="452">a</text>
<text x="504" y="452">m</text>
<text x="512" y="452">s</text>
<text x="520" y="452">(</text>
<text x="528" y="452">m</text>
<text x="536" y="452">.</text>
<text x="544" y="452">s</text>
<text x="552" y="452">h</text>
<text x="560" y="452">a</text>
<text x="568" y="452">r</text>
<text x="576" y="452">e</text>
<text x="584" y="452">d</text>
<text x="592" y="452">,</text>
<text x="608" y="452">m</text>
<text x="616" y="452">.</text>
<text x="624" y="452">i</text>
<text x="632" y="452">n</text>
<text x="640" y="452">v</text>
<text x="648" y="452">o</text>
<text x="656" y="452">k</text>
<text x="664" y="452">e</text>
<text x="672" y="452">)</text>
<text x="376" y="468">s</text>
<text x="384" y="468">u</text>
<text x="392" y="468">i</text>
<text x="400" y="468">t</text>
<text x="408" y="468">_</text>
<text x="416" y="468">r</text>
<text x="424" y="468">e</text>
<text x="432" y="468">p</text>
<text x="440" y="468">o</text>
<text x="448" y="468">r</text>
<text x="456" y="468">t</text>
<text x="464" y="468">_</text>
<text x="472" y="468">f</text>
<text x="480" y="468">i</text>
<text x="488" y="468">n</text>
<text x="496" y="468">a</text>
<text x="504" y="468">l</text>
<text x="512" y="468">i</text>
<text x="520" y="468">z</text>
<text x="528" y="468">e</text>
<text x="536" y="468">(</text>
<text x="544" y="468">)</text>
<text x="760" y="468">s</text>
<text x="768" y="468">u</text>
<text x="776" y="468">i</text>
<text x="784" y="468">t</text>
<text x="792" y="468">_</text>
<text x="800" y="468">r</text>
<text x="808" y="468">e</text>
<text x="816" y="468">p</text>
<text x="824" y="468">o</text>
<text x="832" y="468">r</text>
<text x="840" y="468">t</text>
<text x="848" y="468">_</text>
<text x="856" y="468">f</text>
<text x="864" y="468">i</text>
<text x="872" y="468">n</text>
<text x="880" y="468">a</text>
<text x="888" y="468">l</text>
<text x="896" y="468">i</text>
<text x="904" y="468">z</text>
<text x="912" y="468">e</text>
<text x="920" y="468">(</text>
<text x="928" y="468">)</text>
<text x="944" y="468">{</text>
<text x="24" y="484">s</text>
<text x="32" y="484">u</text>
<text x="40" y="484">i</text>
<text x="48" y="484">t</text>
<text x="56" y="484">_</text>
<text x="64" y="484">r</text>
<text x="72" y="484">e</text>
<text x="80" y="484">p</text>
<text x="88" y="484">o</text>
<text x="96" y="484">r</text>
<text x="104" y="484">t</text>
<text x="112" y="484">_</text>
<text x="120" y="484">c</text>
<text x="128" y="484">a</text>
<text x="136" y="484">l</text>
<text x="144" y="484">l</text>
<text x="152" y="484">b</text>
<text x="160" y="484">a</text>
<text x="168" y="484">c</text>
<text x="176" y="484">k</text>
<text x="184" y="484">(</text>
<text x="192" y="484">)</text>
<text x="208" y="484">{</text>
<text x="376" y="484">s</text>
<text x="384" y="484">u</text>
<text x="392" y="484">i</text>
<text x="400" y="484">t</text>
<text x="408" y="484">_</text>
<text x="416" y="484">r</text>
<text x="424" y="484">e</text>
<text x="432" y="484">p</text>
<text x="440" y="484">o</text>
<text x="448" y="484">r</text>
<text x="456" y="484">t</text>
<text x="464" y="484">_</text>
<text x="472" y="484">c</text>
<text x="480" y="484">a</text>
<text x="488" y="484">l</text>
<text x="496" y="484">l</text>
<text x="504" y="484">b</text>
<text x="512" y="484">a</text>
<text x="520" y="484">c</text>
<text x="528" y="484">k</text>
<text x="536" y="484">(</text>
<text x="544" y="484">)</text>
<text x="776" y="484">a</text>
<text x="784" y="484">d</text>
<text x="792" y="484">d</text>
<text x="800" y="484">_</text>
<text x="808" y="484">r</text>
<text x="816" y="484">e</text>
<text x="824" y="484">s</text>
<text x="832" y="484">u</text>
<text x="840" y="484">l</text>
<text x="848" y="484">t</text>
<text x="856" y="484">(</text>
<text x="864" y="484">)</text>
<text x="872" y="484">;</text>
<text x="888" y="484">s</text>
<text x="896" y="484">i</text>
<text x="904" y="484">g</text>
<text x="912" y="484">n</text>
<text x="920" y="484">(</text>
<text x="928" y="484">)</text>
<text x="40" y="500">h</text>
<text x="48" y="500">t</text>
<text x="56" y="500">t</text>
<text x="64" y="500">p</text>
<text x="72" y="500">_</text>
<text x="80" y="500">p</text>
<text x="88" y="500">o</text>
<text x="96" y="500">s</text>
<text x="104" y="500">t</text>
<text x="112" y="500">(</text>
<text x="120" y="500">u</text>
<text x="128" y="500">r</text>
<text x="136" y="500">i</text>
<text x="144" y="500">,</text>
<text x="160" y="500">s</text>
<text x="168" y="500">u</text>
<text x="176" y="500">i</text>
<text x="184" y="500">t</text>
<text x="192" y="500">_</text>
<text x="200" y="500">r</text>
<text x="208" y="500">e</text>
<text x="216" y="500">p</text>
<text x="224" y="500">o</text>
<text x="232" y="500">r</text>
<text x="240" y="500">t</text>
<text x="248" y="500">)</text>
<text x="760" y="500">}</text>
<text x="24" y="516">}</text>
<text x="24" y="532">s</text>
<text x="32" y="532">u</text>
<text x="40" y="532">i</text>
<text x="48" y="532">t</text>
<text x="56" y="532">_</text>
<text x="64" y="532">i</text>
<text x="72" y="532">n</text>
<text x="80" y="532">v</text>
<text x="88" y="532">o</text>
<text x="96" y="532">k</text>
<text x="104" y="532">e</text>
<text x="112" y="532">_</text>
<text x="120" y="532">c</text>
<text x="128" y="532">a</text>
<text x="136" y="532">l</text>
<text x="144" y="532">l</text>
<text x="152" y="532">b</text>
<text x="160" y="532">a</text>
<text x="168" y="532">c</text>
<text x="176" y="532">k</text>
<text x="184" y="532">(</text>
<text x="192" y="532">)</text>
<text x="208" y="532">{</text>
<text x="376" y="532">s</text>
<text x="384" y="532">u</text>
<text x="392" y="532">i</text>
<text x="400" y="532">t</text>
<text x="408" y="532">_</text>
<text x="416" y="532">i</text>
<text x="424" y="532">n</text>
<text x="432" y="532">v</text>
<text x="440" y="532">o</text>
<text x="448" y="532">k</text>
<text x="456" y="532">e</text>
<text x="464" y="532">_</text>
<text x="472" y="532">c</text>
<text x="480" y="532">a</text>
<text x="488" y="532">l</text>
<text x="496" y="532">l</text>
<text x="504" y="532">b</text>
<text x="512" y="532">a</text>
<text x="520" y="532">c</text>
<text x="528" y="532">k</text>
<text x="536" y="532">(</text>
<text x="544" y="532">p</text>
<text x="552" y="532">.</text>
<text x="560" y="532">d</text>
<text x="568" y="532">s</text>
<text x="576" y="532">t</text>
<text x="584" y="532">,</text>
<text x="600" y="532">p</text>
<text x="608" y="532">.</text>
<text x="616" y="532">a</text>
<text x="624" y="532">r</text>
<text x="632" y="532">g</text>
<text x="640" y="532">s</text>
<text x="648" y="532">)</text>
<text x="40" y="548">r</text>
<text x="48" y="548">e</text>
<text x="56" y="548">t</text>
<text x="64" y="548">u</text>
<text x="72" y="548">r</text>
<text x="80" y="548">n</text>
<text x="96" y="548">s</text>
<text x="104" y="548">y</text>
<text x="112" y="548">s</text>
<text x="120" y="548">t</text>
<text x="128" y="548">e</text>
<text x="136" y="548">m</text>
<text x="144" y="548">(</text>
<text x="152" y="548">a</text>
<text x="160" y="548">r</text>
<text x="168" y="548">g</text>
<text x="176" y="548">s</text>
<text x="184" y="548">)</text>
<text x="360" y="548">}</text>
<text x="24" y="564">}</text>
</g>
</svg>
